<svg width="64" height="64" viewBox="0 0 64 64" fill="none" xmlns="http://www.w3.org/2000/svg">
<path d="M27.1792 58.4211L17.3405 61.3581C16.7838 61.5406 16.2047 61.7425 15.6198 61.8083C11.9497 62.2205 11.5067 57.36 10.8475 54.7796L6.66104 38.8393L3.70473 27.6455L0.427707 15.8163C0.140512 14.9406 0.66598 13.9971 1.26565 13.3628C2.18958 12.3855 3.65902 12.0894 4.90628 11.74L15.8918 8.61484L23.5189 6.35758C27.3954 5.17865 30.2568 4.24687 34.3989 4.11728C40.4614 4.05133 46.615 5.13726 52.3273 7.16974L54.5329 8.0435C57.2732 9.16845 60.9164 10.7106 61.8535 13.7718C62.3792 15.4885 61.5133 17.1458 61.021 18.8241L57.4544 30.847L50.1418 54.7739C49.9003 55.5549 49.6827 56.387 49.2904 57.1084C48.3527 58.833 46.2138 59.8189 44.2969 59.3411C43.745 59.2036 43.2173 58.9415 42.6973 58.7144C36.8208 56.148 33.1815 56.6694 27.1792 58.4211ZM34.2887 6.07446L32.9565 6.16083C32.6324 6.18809 32.2994 6.20905 31.9819 6.28283L33.156 25.1088L33.5937 33.7055C33.6853 35.2194 33.7394 36.7383 33.8513 38.2514L34.6735 53.664L34.7828 54.9428L35.2774 55.0401C35.333 54.536 35.3125 54.0151 35.3135 53.5081L35.251 25.0599L35.3175 13.705L35.4412 8.27069C35.4528 7.54101 35.4134 6.79799 35.4693 6.07104L34.2887 6.07446ZM37.3495 6.15575L37.2257 55.1154L37.6875 55.201L44.8748 17.9929L46.5307 7.48989L42.8009 6.63551L40.9769 27.7725L39.9867 37.7596C39.9388 38.2681 39.9694 38.9171 39.5375 39.2749C39.045 39.6829 38.4387 39.4731 38.0982 38.9789C37.827 38.5853 38.02 37.9126 38.0722 37.4735L38.6568 32.0313L39.4837 22.0401L40.9042 6.80333C40.9183 6.68374 40.9507 6.54404 40.9335 6.4262L37.3495 6.15575ZM29.9177 6.60938L26.81 7.33684L32.1333 52.8286L32.269 54.1841C32.3368 54.8736 32.165 55.2598 32.8913 55.122L32.6575 50.7813C32.6392 50.5184 32.5918 50.2599 32.5799 49.9941L32.4109 46.3281C32.3947 46.0781 32.3407 45.8315 32.3305 45.5781L32.2855 44.0654C32.1988 42.6929 32.0973 41.3345 32.0477 39.9531L31.8423 36.966C31.781 35.9078 31.7174 34.8376 31.6702 33.7794L31.4105 28.4688C31.3907 28.2056 31.3412 27.9485 31.3295 27.6811L31.2912 26.2353C31.2067 24.9153 31.1314 23.5905 31.0407 22.2718L30.4013 12.625C30.3924 12.5151 30.3629 12.4095 30.3558 12.2979L30.0307 6.60938C29.9878 6.60438 29.9612 6.603 29.9177 6.60938ZM48.4203 7.9237L39.5542 55.5123C39.8049 55.5508 40.0277 55.6059 40.2629 55.7014L41.0367 52.6321L52.909 9.48543L48.4203 7.9237ZM24.9505 8.01563L16.7277 10.3498C16.6389 10.3733 16.53 10.3894 16.454 10.4402L26.8829 51.27L28.203 56.169L29.9503 55.6475C30.0679 55.6149 30.4008 55.57 30.478 55.5001L28.6804 37.754L25.6277 13.4311C25.5604 12.8934 25.0388 8.09183 24.9505 8.01563ZM54.7304 10.2007L42.1042 56.2828C43.0183 56.7495 44.0464 57.3419 45.0782 57.473L45.1354 57.4809C45.7689 57.5611 46.4377 57.2746 46.9493 56.9248C48.0403 56.0235 48.3832 54.0469 48.7762 52.7263L55.1879 31.7186L59.62 16.8266C59.7977 16.2456 60.0328 15.6071 60.091 15.0026C60.3 12.834 56.2479 10.936 54.7304 10.2007ZM14.5154 11.0156L5.10619 13.7414C3.19892 14.3331 1.9312 14.293 2.65142 16.5221L3.03294 17.6489L9.4908 42.1073L13.1593 55.9746C13.429 56.9289 13.6133 57.947 13.96 58.8751C14.4925 60.3004 15.796 59.7881 16.9204 59.4258L26.3692 56.6246C25.9352 55.5548 25.3849 53.3549 25.1494 52.1826L20.3195 53.5895C19.936 53.697 19.5453 53.8143 19.1487 53.8588C17.9292 53.9955 17.4179 52.523 18.5313 52.0339C19.0328 51.8135 19.6253 51.7024 20.1549 51.5479L24.6029 50.2944L23.5452 46.3491L19.0394 47.6191C18.4999 47.762 17.8928 47.9993 17.3393 48.0503C16.5342 48.1245 16.0553 47.198 16.4542 46.5439C16.6998 46.1409 17.1964 46.065 17.6174 45.9598L18.3719 45.7621L23.0378 44.4543L21.9779 40.5418C21.3209 40.6706 20.6655 40.8885 20.0234 41.0774L17.5104 41.7903C16.7948 41.9881 15.2052 42.6126 14.9464 41.3725C14.76 40.4791 15.6664 40.2149 16.2947 40.0453L21.471 38.5723L20.7974 36.0074C20.6822 35.551 20.5192 35.0759 20.4533 34.6104L15.569 35.961C15.1014 36.0766 14.5704 36.2583 14.0902 36.2786C13.2165 36.3158 12.1516 34.8334 14.5223 34.182L19.917 32.6814L18.9309 28.7596L15.1015 29.8504C14.3623 30.0611 12.0472 30.9359 11.7832 29.6406C11.5687 28.5884 12.7845 28.3911 13.5065 28.1959L17.0729 27.2029C17.5255 27.0695 17.9824 26.9203 18.448 26.8413L17.4382 22.8139L13.0315 24.047C12.4329 24.1936 11.7887 24.4 11.1727 24.434C10.0645 24.4951 9.74317 23.0796 10.7094 22.6064C11.1073 22.4115 11.6402 22.343 12.0718 22.2284C12.6109 22.0853 16.8372 20.9816 16.9584 20.8694L15.9485 16.9601L10.8545 18.3901C10.4634 18.4775 10.0118 18.6265 9.6094 18.6071C8.87972 18.5723 8.47843 17.7521 8.86795 17.1524C9.12904 16.7505 9.56585 16.6803 9.99615 16.5715L15.5212 15.0519L14.5933 11.2969C14.5733 11.2108 14.5662 11.0854 14.5154 11.0156Z" fill="black"/>
</svg>
