<svg width="64" height="64" viewBox="0 0 64 64" fill="none" xmlns="http://www.w3.org/2000/svg">
<path d="M14.976 56C13.7475 56 12.7226 55.5893 11.9013 54.768C11.08 53.9467 10.6684 52.9218 10.6666 51.6933V17.64C10.6666 16.4133 11.0782 15.3893 11.9013 14.568C12.7244 13.7467 13.7493 13.3351 14.976 13.3333H19.6933V7.38666H22.5653V13.3333H41.6426V7.38666H44.3093V13.3333H49.0266C50.2533 13.3333 51.2782 13.7449 52.1013 14.568C52.9244 15.3911 53.3351 16.416 53.3333 17.6427V51.6933C53.3333 52.92 52.9226 53.9449 52.1013 54.768C51.28 55.5911 50.2542 56.0018 49.024 56H14.976ZM14.976 53.3333H49.0266C49.4355 53.3333 49.8115 53.1627 50.1546 52.8213C50.4977 52.48 50.6684 52.1031 50.6666 51.6907V28.3093H13.3333V51.6933C13.3333 52.1022 13.504 52.4782 13.8453 52.8213C14.1866 53.1644 14.5626 53.3351 14.9733 53.3333M13.3333 25.64H50.6666V17.64C50.6666 17.2311 50.496 16.8551 50.1546 16.512C49.8133 16.1689 49.4364 15.9982 49.024 16H14.976C14.5653 16 14.1884 16.1707 13.8453 16.512C13.5022 16.8533 13.3315 17.2302 13.3333 17.6427V25.64ZM20 36V33.3333H44V36H20ZM20 46.6667V44H36V46.6667H20Z" fill="black"/>
</svg>
