<svg width="64" height="64" viewBox="0 0 64 64" fill="none" xmlns="http://www.w3.org/2000/svg">
<path d="M32 13C28.2422 13 24.5687 14.1143 21.4442 16.2021C18.3196 18.2898 15.8844 21.2572 14.4463 24.729C13.0082 28.2008 12.632 32.0211 13.3651 35.7067C14.0982 39.3924 15.9078 42.7778 18.565 45.435C21.2222 48.0922 24.6077 49.9018 28.2933 50.6349C31.9789 51.368 35.7992 50.9918 39.271 49.5537C42.7428 48.1156 45.7102 45.6804 47.7979 42.5558C49.8857 39.4313 51 35.7578 51 32C50.9944 26.9626 48.9909 22.1331 45.4289 18.5711C41.8669 15.0091 37.0374 13.0056 32 13ZM32 49C28.6377 49 25.3509 48.003 22.5553 46.135C19.7597 44.267 17.5807 41.612 16.2941 38.5056C15.0074 35.3993 14.6707 31.9811 15.3267 28.6835C15.9826 25.3858 17.6017 22.3567 19.9792 19.9792C22.3567 17.6017 25.3858 15.9826 28.6835 15.3267C31.9811 14.6707 35.3993 15.0074 38.5056 16.294C41.612 17.5807 44.267 19.7597 46.135 22.5553C48.003 25.3509 49 28.6377 49 32C48.995 36.5071 47.2023 40.8282 44.0153 44.0153C40.8282 47.2023 36.5071 48.995 32 49Z" fill="black"/>
<path d="M13 21V11H11V20H10V11H8V20H7V11H5V20H4V11H2V26C2.00076 26.6203 2.19338 27.2251 2.55144 27.7316C2.90951 28.2381 3.41549 28.6214 4 28.829V52C4 52.7956 4.31607 53.5587 4.87868 54.1213C5.44129 54.6839 6.20435 55 7 55H8C8.79565 55 9.55871 54.6839 10.1213 54.1213C10.6839 53.5587 11 52.7956 11 52V28.829C11.5845 28.6214 12.0905 28.2381 12.4486 27.7316C12.8066 27.2251 12.9992 26.6203 13 26V21ZM11 26C11 26.2652 10.8946 26.5196 10.7071 26.7071C10.5196 26.8946 10.2652 27 10 27C9.73478 27 9.48043 27.1054 9.29289 27.2929C9.10536 27.4804 9 27.7348 9 28V52C9 52.2652 8.89464 52.5196 8.70711 52.7071C8.51957 52.8946 8.26522 53 8 53H7C6.73478 53 6.48043 52.8946 6.29289 52.7071C6.10536 52.5196 6 52.2652 6 52V28C6 27.7348 5.89464 27.4804 5.70711 27.2929C5.51957 27.1054 5.26522 27 5 27C4.73478 27 4.48043 26.8946 4.29289 26.7071C4.10536 26.5196 4 26.2652 4 26V22H11V26ZM61 10C58.6139 10.0026 56.3262 10.9517 54.639 12.639C52.9517 14.3262 52.0026 16.6139 52 19V32C52 32.7956 52.3161 33.5587 52.8787 34.1213C53.4413 34.6839 54.2044 35 55 35V54C55 54.2652 55.1054 54.5196 55.2929 54.7071C55.4804 54.8946 55.7348 55 56 55H61C61.2652 55 61.5196 54.8946 61.7071 54.7071C61.8946 54.5196 62 54.2652 62 54V11C62 10.7348 61.8946 10.4804 61.7071 10.2929C61.5196 10.1054 61.2652 10 61 10ZM60 53H57V34C57 33.7348 56.8946 33.4804 56.7071 33.2929C56.5196 33.1054 56.2652 33 56 33H55C54.7348 33 54.4804 32.8946 54.2929 32.7071C54.1054 32.5196 54 32.2652 54 32V19C54.0021 17.3172 54.6094 15.6914 55.7109 14.4192C56.8125 13.1471 58.3348 12.3137 60 12.071V53Z" fill="black"/>
<path d="M57 16H55V31H57V16Z" fill="black"/>
<path d="M32 22C30.0222 22 28.0888 22.5865 26.4443 23.6853C24.7998 24.7841 23.5181 26.3459 22.7612 28.1732C22.0043 30.0004 21.8063 32.0111 22.1922 33.9509C22.578 35.8907 23.5304 37.6725 24.9289 39.0711C26.3275 40.4696 28.1093 41.422 30.0491 41.8079C31.9889 42.1937 33.9996 41.9957 35.8268 41.2388C37.6541 40.4819 39.2159 39.2002 40.3147 37.5557C41.4135 35.9112 42 33.9778 42 32C41.9971 29.3487 40.9426 26.8069 39.0679 24.9321C37.1931 23.0574 34.6513 22.0029 32 22ZM32 40C30.4178 40 28.871 39.5308 27.5554 38.6518C26.2399 37.7727 25.2145 36.5233 24.609 35.0615C24.0035 33.5997 23.845 31.9911 24.1537 30.4393C24.4624 28.8874 25.2243 27.462 26.3432 26.3431C27.462 25.2243 28.8874 24.4624 30.4393 24.1537C31.9911 23.845 33.5997 24.0035 35.0615 24.609C36.5233 25.2145 37.7727 26.2398 38.6518 27.5554C39.5308 28.871 40 30.4177 40 32C39.9976 34.121 39.154 36.1544 37.6542 37.6542C36.1545 39.154 34.121 39.9976 32 40Z" fill="black"/>
</svg>
