<svg width="64" height="64" viewBox="0 0 64 64" fill="none" xmlns="http://www.w3.org/2000/svg">
<path d="M6.5 62H50.5C50.8978 62 51.2794 61.842 51.5607 61.5607C51.842 61.2794 52 60.8978 52 60.5V33.5C52 33.1022 51.842 32.7206 51.5607 32.4393C51.2794 32.158 50.8978 32 50.5 32H50V15.14C50.0075 14.9436 49.9646 14.7486 49.8753 14.5735C49.786 14.3985 49.6534 14.2492 49.49 14.14L48.95 13.84L41.67 17.21C39.7356 14.6817 37.2517 12.6263 34.4062 11.1992C31.5606 9.77207 28.4278 9.01054 25.2447 8.9722C22.0615 8.93385 18.9113 9.61969 16.0322 10.9779C13.1531 12.336 10.6204 14.331 8.62567 16.8119C6.63093 19.2929 5.22634 22.1948 4.51807 25.2984C3.80981 28.402 3.81641 31.626 4.53737 34.7267C5.25834 37.8274 6.6748 40.7236 8.67967 43.1963C10.6845 45.669 13.2253 47.6536 16.11 49H7.79C6.78483 49 5.82083 49.3993 5.11007 50.1101C4.3993 50.8208 4 51.7848 4 52.79V54H2V57.5C2.00264 58.6927 2.4776 59.8357 3.32094 60.6791C4.16428 61.5224 5.30734 61.9974 6.5 62ZM36 60V56H38V60H36ZM40 60V56H42V60H40ZM44 60V56H46V60H44ZM50 60H48V56H50V60ZM50 54H36V46H50V54ZM36 20.6V32H35.5C35.1022 32 34.7206 32.158 34.4393 32.4393C34.158 32.7206 34 33.1022 34 33.5V42C31.4101 43.9598 28.2478 45.0139 25 45C22.497 45.0034 20.033 44.3804 17.8325 43.1878C15.6319 41.9952 13.7648 40.2709 12.4012 38.172C11.0376 36.0731 10.2208 33.6663 10.0254 31.171C9.83005 28.6757 10.2622 26.1711 11.2825 23.8856C12.3027 21.6 13.8787 19.6061 15.8668 18.0855C17.8549 16.5649 20.1919 15.5659 22.6649 15.1797C25.1379 14.7934 27.6682 15.0322 30.0253 15.8741C32.3824 16.716 34.4914 18.1344 36.16 20C36.0527 20.1815 35.9973 20.3891 36 20.6ZM36 42H50V44H36V42ZM50 40H36V34H50V40ZM48 32H38V21.14L48 16.51V32ZM6 30C6 24.9609 8.00178 20.1282 11.565 16.565C15.1282 13.0018 19.9609 11 25 11C27.8431 10.988 30.6519 11.6206 33.2154 12.8504C35.7788 14.0801 38.0301 15.875 39.8 18.1L37.91 19C35.8002 16.5165 33.0209 14.6917 29.9034 13.743C26.7858 12.7942 23.4612 12.7615 20.3256 13.6488C17.19 14.536 14.3754 16.3058 12.2171 18.7473C10.0589 21.1889 8.64779 24.1993 8.15199 27.4201C7.65619 30.6409 8.09655 33.9363 9.42063 36.9139C10.7447 39.8915 12.8967 42.4258 15.6203 44.215C18.344 46.0042 21.5244 46.9729 24.783 47.0057C28.0416 47.0385 31.2409 46.134 34 44.4V46.73C31.1057 48.2867 27.8571 49.0661 24.5715 48.992C21.2859 48.9178 18.0758 47.9928 15.2546 46.3071C12.4334 44.6215 10.0977 42.2329 8.47561 39.3747C6.85353 36.5165 6.00055 33.2864 6 30ZM6 52.79C6 52.3153 6.18859 51.86 6.52428 51.5243C6.85997 51.1886 7.31526 51 7.79 51H34V54H6V52.79ZM4 56H34V60H6.5C5.83696 60 5.20107 59.7366 4.73223 59.2678C4.26339 58.7989 4 58.163 4 57.5V56Z" fill="black"/>
<path d="M14 28C14.1316 28.0008 14.2621 27.9755 14.3839 27.9258C14.5057 27.876 14.6166 27.8027 14.71 27.71L21.71 20.71C21.8983 20.5217 22.0041 20.2663 22.0041 20C22.0041 19.7337 21.8983 19.4783 21.71 19.29C21.5217 19.1017 21.2663 18.9959 21 18.9959C20.7337 18.9959 20.4783 19.1017 20.29 19.29L13.29 26.29C13.1963 26.383 13.1219 26.4936 13.0711 26.6154C13.0203 26.7373 12.9942 26.868 12.9942 27C12.9942 27.132 13.0203 27.2627 13.0711 27.3846C13.1219 27.5064 13.1963 27.617 13.29 27.71C13.3834 27.8027 13.4943 27.876 13.6161 27.9258C13.7379 27.9755 13.8684 28.0008 14 28ZM26.29 19.29L13.29 32.29C13.1963 32.383 13.1219 32.4936 13.0711 32.6154C13.0203 32.7373 12.9942 32.868 12.9942 33C12.9942 33.132 13.0203 33.2627 13.0711 33.3846C13.1219 33.5064 13.1963 33.617 13.29 33.71C13.383 33.8037 13.4936 33.8781 13.6154 33.9289C13.7373 33.9797 13.868 34.0058 14 34.0058C14.132 34.0058 14.2627 33.9797 14.3846 33.9289C14.5064 33.8781 14.617 33.8037 14.71 33.71L27.71 20.71C27.8983 20.5217 28.0041 20.2663 28.0041 20C28.0041 19.7337 27.8983 19.4783 27.71 19.29C27.5217 19.1017 27.2663 18.9959 27 18.9959C26.7337 18.9959 26.4783 19.1017 26.29 19.29ZM59 24H61V22H59V20H57V22H55V24H57V26H54V28H57V30H54V32H57V34H54V36H57V38H55V40H57V45H55.1C54.8083 45 54.5285 45.1159 54.3222 45.3222C54.1159 45.5285 54 45.8083 54 46.1V60.9C54 61.1917 54.1159 61.4715 54.3222 61.6778C54.5285 61.8841 54.8083 62 55.1 62H60.9C61.1917 62 61.4715 61.8841 61.6778 61.6778C61.8841 61.4715 62 61.1917 62 60.9V46.1C62 45.8083 61.8841 45.5285 61.6778 45.3222C61.4715 45.1159 61.1917 45 60.9 45H59V40H61V38H59V36H62V34H59V32H62V30H59V28H62V26H59V24ZM60 60H56V47H60V60Z" fill="black"/>
</svg>
