<?xml version="1.0" encoding="UTF-8"?>
<svg version="1.1" xmlns="http://www.w3.org/2000/svg" width="512" height="512">
<path d="M0 0 C21.98244269 15.58042797 38.06877525 37.11368979 43.06274414 63.88061523 C50.07033957 110.81970012 40.26568373 176.21747824 15.54101562 217.08422852 C14.88101562 217.74422852 14.22101563 218.40422852 13.54101562 219.08422852 C13.36598567 221.66526158 13.30939284 224.13731014 13.34570312 226.71704102 C13.34853302 227.46887665 13.35136292 228.22071228 13.35427856 228.99533081 C13.36548688 231.40012429 13.39059211 233.80454733 13.41601562 236.20922852 C13.42604461 237.83812939 13.4351706 239.4670361 13.44335938 241.09594727 C13.46542828 245.09218407 13.49996212 249.08814346 13.54101562 253.08422852 C28.91638583 260.83225652 44.33665179 268.45743707 59.89941406 275.82299805 C62.41737773 277.02519771 64.92210527 278.25099632 67.42382812 279.48657227 C75.65675437 283.52411056 83.88677458 287.04182177 92.54101562 290.08422852 C113.78523026 297.57869991 134.8071316 307.73453578 151.54101562 323.08422852 C152.06002441 323.55554199 152.5790332 324.02685547 153.11376953 324.51245117 C166.53583708 336.83273657 178.66479833 352.60059645 179.6752367 371.609231 C179.68164692 372.95509108 179.68164692 372.95509108 179.68818665 374.32814026 C179.6989196 375.8821907 179.6989196 375.8821907 179.70986938 377.46763611 C179.71255829 378.59351639 179.71524719 379.71939667 179.71801758 380.87939453 C179.72458878 382.07338867 179.73115997 383.26738281 179.7379303 384.49755859 C179.75762585 388.44441087 179.76931832 392.39124985 179.77929688 396.33813477 C179.7833466 397.69917254 179.78746359 399.06021011 179.79164696 400.42124748 C179.81067205 406.81138057 179.8249135 413.20150224 179.83325893 419.59165817 C179.84304762 426.96423901 179.86942039 434.33652092 179.90975982 441.70899636 C179.93989747 447.41272442 179.9547252 453.11636658 179.95803994 458.82017273 C179.96039142 462.22526247 179.96936527 465.63003184 179.99450111 469.03503609 C180.01872656 472.82975573 180.01795812 476.62368451 180.01098633 480.41845703 C180.02379639 481.54636154 180.03660645 482.67426605 180.04980469 483.83634949 C180.03938896 485.3861702 180.03938896 485.3861702 180.02876282 486.96730042 C180.03115117 487.86416345 180.03353952 488.76102648 180.03600025 489.68506718 C179.38149612 492.85741015 178.01229574 494.06262558 175.54101562 496.08422852 C172.80012335 496.81227803 170.31080357 496.65866092 167.54101562 496.08422852 C164.57243406 493.87682171 163.71235772 492.59825479 162.54101562 489.08422852 C162.44828651 487.49975259 162.41205641 485.91166344 162.40971375 484.32447815 C162.40370148 482.85499977 162.40370148 482.85499977 162.39756775 481.35583496 C162.39809647 480.28208618 162.39862518 479.2083374 162.39916992 478.10205078 C162.39395828 476.40392494 162.39395828 476.40392494 162.38864136 474.67149353 C162.38127992 472.20790156 162.37593661 469.74430295 162.37235069 467.28070259 C162.36518688 463.37473809 162.34951862 459.46889933 162.33100891 455.56297302 C162.32467122 454.22353846 162.3183456 452.88410383 162.31203175 451.54466915 C162.30886593 450.87376401 162.30570012 450.20285887 162.30243838 449.51162326 C162.26045489 440.42101397 162.22743595 431.33044578 162.21508789 422.23974609 C162.20576716 415.44748713 162.17556355 408.65555161 162.13376808 401.86341667 C162.12149406 399.28043941 162.1163302 396.69741776 162.11856651 394.11441231 C162.12093365 390.48625697 162.09864228 386.85899161 162.07104492 383.23095703 C162.07764633 382.17542633 162.08424774 381.11989563 162.09104919 380.03237915 C161.88808196 363.67097377 153.97360183 350.38540568 142.54101562 339.08422852 C141.88101562 338.75422852 141.22101563 338.42422852 140.54101562 338.08422852 C140.18330078 339.0800293 140.18330078 339.0800293 139.81835938 340.09594727 C138.19906609 343.88420219 136.19732213 347.35345688 134.10351562 350.89672852 C133.66467041 351.64011475 133.2258252 352.38350098 132.77368164 353.14941406 C125.4849643 365.33936541 117.18163253 376.82376355 108.54101562 388.08422852 C107.86683594 388.97625977 107.19265625 389.86829102 106.49804688 390.78735352 C105.87285156 391.60719727 105.24765625 392.42704102 104.60351562 393.27172852 C104.05824219 393.9871582 103.51296875 394.70258789 102.95117188 395.43969727 C100.59575348 398.18659795 99.40143353 398.09548514 95.66601562 398.39672852 C92.7113291 398.33763479 91.65043169 398.14987816 89.04101562 396.58422852 C86.95962579 393.11524547 86.86185739 389.98496674 87.54101562 386.08422852 C88.93228194 383.29952204 90.80311728 381.03007392 92.79101562 378.64672852 C93.89867887 377.24481378 95.00407882 375.84110838 96.10742188 374.43579102 C96.67734863 373.71939453 97.24727539 373.00299805 97.83447266 372.26489258 C106.29712842 361.45109554 113.67551203 349.95774285 120.54101562 338.08422852 C121.24336332 336.88325276 121.94647818 335.68272531 122.65039062 334.48266602 C124.28722241 331.68695733 125.91743515 328.8876456 127.54101562 326.08422852 C126.81180908 325.80337402 126.08260254 325.52251953 125.33129883 325.2331543 C122.76141034 324.17497815 120.34988259 323.00321915 117.89648438 321.70141602 C117.05537109 321.25668945 116.21425781 320.81196289 115.34765625 320.35375977 C114.48333984 319.89356445 113.61902344 319.43336914 112.72851562 318.95922852 C111.84486328 318.49129883 110.96121094 318.02336914 110.05078125 317.54125977 C107.87966037 316.39115249 105.70979302 315.23874706 103.54101562 314.08422852 C100.46195458 317.74618531 97.98398139 321.57657567 95.60351562 325.70922852 C76.31027402 358.46296677 50.7138567 390.70668734 20.54101562 414.08422852 C19.05214844 415.28112305 19.05214844 415.28112305 17.53320312 416.50219727 C-7.86445706 436.7478507 -7.86445706 436.7478507 -18.55273438 436.38891602 C-20.45898438 436.08422852 -20.45898438 436.08422852 -22.95898438 434.58422852 C-24.76191528 431.57934367 -24.93643314 429.52750734 -24.99023438 426.08422852 C-23.90446012 421.99660778 -20.68368551 420.22456434 -17.24414062 418.07641602 C-16.0049626 417.36769315 -14.7639816 416.66211608 -13.52148438 415.95922852 C-6.58482874 411.90792465 -0.24067172 407.40954002 5.98779297 402.3449707 C7.46941912 401.142343 8.96774155 399.96037231 10.46679688 398.77954102 C18.00425112 392.65963653 24.91079096 385.92490257 31.79101562 379.08422852 C32.71390381 378.17060547 33.63679199 377.25698242 34.58764648 376.31567383 C40.6633493 370.21214836 46.21068147 363.84522073 51.54101562 357.08422852 C52.37947021 356.03477051 52.37947021 356.03477051 53.23486328 354.96411133 C65.20242944 339.89722315 76.25238833 323.95042017 85.54101562 307.08422852 C75.6618926 302.46657101 65.6030955 298.28341351 55.54101562 294.08422852 C55.28964844 294.76098633 55.03828125 295.43774414 54.77929688 296.13500977 C44.82975599 319.8318658 26.84880775 339.88013911 8.97851562 357.89672852 C8.11613281 358.7685376 7.25375 359.64034668 6.36523438 360.53857422 C-34.23191102 400.93196501 -105.98926993 441.08422852 -164.45898438 441.08422852 C-164.45010193 441.71427795 -164.44121948 442.34432739 -164.43206787 442.99346924 C-164.34362167 449.54690485 -164.28326131 456.10017112 -164.23925781 462.65405273 C-164.21913386 465.10041184 -164.19183178 467.5467228 -164.15722656 469.99291992 C-164.10874474 473.50785192 -164.08602309 477.02214835 -164.06835938 480.53735352 C-164.04771423 481.63227112 -164.02706909 482.72718872 -164.00579834 483.85528564 C-164.00549622 484.87604187 -164.00519409 485.8967981 -164.00488281 486.94848633 C-163.99600037 487.8456134 -163.98711792 488.74274048 -163.97796631 489.66705322 C-164.61352684 492.86082351 -165.97352308 494.05445804 -168.45898438 496.08422852 C-170.45898438 496.61547852 -170.45898438 496.61547852 -172.45898438 496.58422852 C-173.11898437 496.59454102 -173.77898437 496.60485352 -174.45898438 496.61547852 C-177.40033902 495.83418119 -178.55415905 494.43255609 -180.45898438 492.08422852 C-180.97364807 489.23840332 -180.97364807 489.23840332 -180.99243164 485.91040039 C-181.00826797 484.66230591 -181.02410431 483.41421143 -181.04042053 482.1282959 C-181.0365792 480.76985296 -181.03154023 479.41141296 -181.02539062 478.05297852 C-181.03062699 476.65579819 -181.03690352 475.25862141 -181.04417419 473.8614502 C-181.05457403 470.93602846 -181.0500232 468.01109327 -181.03540039 465.08569336 C-181.01820504 461.33924282 -181.04171614 457.59432488 -181.07688999 453.84804535 C-181.09886404 450.96374375 -181.09742292 448.07980899 -181.08912468 445.19544983 C-181.08830527 443.81435972 -181.09516685 442.43324265 -181.10989571 441.05223083 C-181.12733779 439.12090691 -181.10948167 437.18936195 -181.09008789 435.25805664 C-181.08912613 434.15981567 -181.08816437 433.06157471 -181.08717346 431.93005371 C-180.45898438 429.08422852 -180.45898438 429.08422852 -178.10510254 426.75323486 C-175.05878801 424.8318096 -172.72149346 424.24427197 -169.17382812 423.66235352 C-167.93511963 423.44603271 -166.69641113 423.22971191 -165.42016602 423.00683594 C-164.76501007 422.89794037 -164.10985413 422.7890448 -163.43484497 422.67684937 C-102.43448838 412.42351438 -44.28708014 385.05036553 -0.45898438 341.08422852 C0.78238281 339.89506836 0.78238281 339.89506836 2.04882812 338.68188477 C17.50392749 323.71119896 30.52173541 305.6260023 39.54101562 286.08422852 C31.62101563 282.12422852 31.62101563 282.12422852 23.54101562 278.08422852 C22.88101562 279.73422852 22.22101563 281.38422852 21.54101562 283.08422852 C9.98008039 304.37157932 -9.0307022 321.22718461 -31.97460938 329.07641602 C-54.08140228 335.47053325 -76.37534047 333.26779355 -96.59570312 322.35375977 C-114.28155203 312.28724442 -127.71321249 296.75837893 -137.45898438 279.08422852 C-139.25258479 279.92968937 -141.04602501 280.77549103 -142.83886719 281.62255859 C-144.50303338 282.40871177 -146.16777489 283.19364796 -147.83300781 283.97753906 C-152.79490499 286.32105253 -157.73115748 288.70686715 -162.64257812 291.15454102 C-174.66324248 297.10910021 -186.65763949 302.45153501 -199.20898438 307.14672852 C-225.77717819 317.12910204 -257.00330906 331.10723368 -269.97070312 358.24829102 C-272.51788253 364.24766485 -274.57750622 369.45071578 -274.59701538 376.00460815 C-274.60246872 376.99430603 -274.60792206 377.98400391 -274.61354065 379.00369263 C-274.61510414 380.62306229 -274.61510414 380.62306229 -274.61669922 382.27514648 C-274.62177994 383.41701416 -274.62686066 384.55888184 -274.63209534 385.73535156 C-274.64279764 388.21585192 -274.65141837 390.69636193 -274.65821457 393.17687607 C-274.6699995 397.10227259 -274.68945092 401.02755891 -274.71133423 404.95291138 C-274.77317939 416.11399421 -274.82726084 427.27507139 -274.86035156 438.4362793 C-274.88067706 445.26204203 -274.91657273 452.08759577 -274.96110916 458.91324234 C-274.97528011 461.51513424 -274.98399405 464.11706177 -274.98716354 466.71899033 C-274.9920657 470.35771555 -275.01520652 473.99590493 -275.04248047 477.63452148 C-275.03947433 478.7100528 -275.0364682 479.78558411 -275.03337097 480.89370728 C-275.09406088 486.33921488 -275.28630063 490.42750749 -278.45898438 495.08422852 C-281.58840903 496.64894084 -285.06980661 496.78124809 -288.45898438 496.08422852 C-290.92556628 494.07418067 -292.29500312 492.856596 -292.96514225 489.70017624 C-292.96794917 488.81022587 -292.97075609 487.9202755 -292.97364807 487.00335693 C-292.98637253 485.97762573 -292.99909698 484.95189453 -293.01220703 483.89508057 C-293.00568115 482.77510681 -292.99915527 481.65513306 -292.99243164 480.5012207 C-293.00104721 479.31689453 -293.00966278 478.13256836 -293.01853943 476.91235352 C-293.0373626 473.66348012 -293.03808608 470.41524853 -293.02921796 467.16635036 C-293.02409795 464.44370471 -293.03141072 461.72114977 -293.03869003 458.99851346 C-293.05570222 452.55988198 -293.05211942 446.12148725 -293.03540039 439.68286133 C-293.0185681 433.07771324 -293.03418639 426.47323034 -293.06662327 419.86815524 C-293.09350836 414.17440414 -293.10054207 408.48085763 -293.09210819 402.78704953 C-293.08722229 399.39719765 -293.0891511 396.00774335 -293.10989571 392.61794281 C-293.23584127 365.46356581 -288.26499902 346.19592582 -268.63867188 326.23266602 C-266.64638592 324.41287235 -264.58564532 322.74568238 -262.45898438 321.08422852 C-261.44835937 320.27598633 -260.43773437 319.46774414 -259.39648438 318.63500977 C-241.57923887 304.75782577 -221.42627409 296.06107487 -200.45898438 288.08422852 C-188.05472246 283.3353935 -176.25039779 277.58349084 -164.40638733 271.58839417 C-154.6166525 266.63428847 -144.72812793 261.89725965 -134.80712891 257.21240234 C-132.00840005 255.86774378 -129.23332882 254.47839782 -126.45898438 253.08422852 C-126.25850351 248.07143585 -126.11481805 243.06106317 -126.01953125 238.04516602 C-125.97974384 236.34585854 -125.92548937 234.6468167 -125.85546875 232.94848633 C-125.41404748 221.95190349 -126.19801 214.40173935 -132.42138672 205.15527344 C-137.99179076 196.75962134 -140.74688348 186.6079632 -143.58398438 177.02172852 C-143.81359863 176.26303467 -144.04321289 175.50434082 -144.27978516 174.72265625 C-148.91856223 158.3583563 -151.03929013 141.17944821 -153.26928711 124.35205078 C-153.64709655 121.517135 -154.03999868 118.68456865 -154.43359375 115.85180664 C-155.70127124 106.51511349 -156.70571884 97.21616788 -157.17773438 87.80297852 C-157.22048996 86.97128647 -157.26324554 86.13959442 -157.30729675 85.28269958 C-158.44455584 57.43449527 -149.17391893 34.23213411 -130.54101562 13.85375977 C-97.51793921 -21.14763238 -39.75438809 -27.05734421 0 0 Z M-119.45898438 27.08422852 C-134.68482072 43.95677761 -141.19061096 63.09788218 -140.31445312 85.84204102 C-138.35860407 120.93003646 -134.5061273 160.9496521 -119.45898438 193.08422852 C-119.1732959 193.70587891 -118.88760742 194.3275293 -118.59326172 194.96801758 C-113.97169251 204.87031011 -108.25658427 212.46640037 -100.45898438 220.08422852 C-99.729375 220.83446289 -98.99976563 221.58469727 -98.24804688 222.35766602 C-87.1050324 233.16928972 -70.7768652 239.39166392 -55.33398438 239.52172852 C-36.24989407 239.15655873 -18.98462676 230.12008663 -5.89648438 216.52172852 C12.28209705 195.55618688 17.72124527 166.69688121 21.54101562 140.08422852 C21.76038222 138.58959455 21.97978519 137.09496593 22.19921875 135.6003418 C30.4273653 84.62180405 30.4273653 84.62180405 13.73242188 37.47875977 C11.76600265 34.90728847 9.70623218 32.49085 7.54101562 30.08422852 C7.11191895 29.60598633 6.68282227 29.12774414 6.24072266 28.63500977 C-6.61925498 14.50855357 -23.25976489 3.92718986 -42.45898438 1.08422852 C-43.17054688 0.9746582 -43.88210938 0.86508789 -44.61523438 0.75219727 C-72.95023393 -2.98921993 -100.06798576 6.20416004 -119.45898438 27.08422852 Z M-108.45898438 236.08422852 C-108.46833008 236.7495459 -108.47767578 237.41486328 -108.48730469 238.1003418 C-108.54124457 241.1373687 -108.62484499 244.1728943 -108.70898438 247.20922852 C-108.73025391 248.77930664 -108.73025391 248.77930664 -108.75195312 250.38110352 C-108.94195026 256.38501288 -109.24004605 260.44933852 -113.45898438 265.08422852 C-115.59960938 266.76391602 -115.59960938 266.76391602 -117.70898438 267.95922852 C-118.41539062 268.36915039 -119.12179688 268.77907227 -119.84960938 269.20141602 C-120.64625 269.6384082 -120.64625 269.6384082 -121.45898438 270.08422852 C-119.45573977 277.25541799 -114.98618104 282.35340324 -110.45898438 288.08422852 C-109.98589844 288.72618164 -109.5128125 289.36813477 -109.02539062 290.02954102 C-98.40069901 303.73241432 -81.5849149 312.51210607 -64.79882812 315.56860352 C-47.47878362 317.48366535 -31.34238135 312.37281735 -17.45898438 302.08422852 C-6.45346092 293.14224071 1.4692505 283.25293074 8.54101562 271.08422852 C6.00392414 269.04435597 3.4654138 267.02796669 0.85351562 265.08422852 C-2.0821136 262.54530594 -3.26092869 260.56373176 -3.77783203 256.70239258 C-3.80925293 255.84355469 -3.84067383 254.9847168 -3.87304688 254.09985352 C-3.91171875 253.1652832 -3.95039063 252.23071289 -3.99023438 251.26782227 C-4.02117187 250.29973633 -4.05210937 249.33165039 -4.08398438 248.33422852 C-4.12265625 247.35067383 -4.16132813 246.36711914 -4.20117188 245.35375977 C-4.29526864 242.93076815 -4.38090766 240.50778056 -4.45898438 238.08422852 C-5.40644531 238.7377832 -5.40644531 238.7377832 -6.37304688 239.40454102 C-25.42138922 252.08513779 -46.96361557 258.22774678 -69.72460938 254.45922852 C-83.95616527 251.5839753 -96.53072501 244.07552593 -108.45898438 236.08422852 Z " fill="#000000" transform="translate(312.458984375,15.915771484375)"/>
<path d="M0 0 C1.051875 -0.00515625 2.10375 -0.0103125 3.1875 -0.015625 C4.280625 -0.00015625 5.37375 0.0153125 6.5 0.03125 C8.1396875 0.00804687 8.1396875 0.00804687 9.8125 -0.015625 C10.864375 -0.01046875 11.91625 -0.0053125 13 0 C14.43859375 0.00676758 14.43859375 0.00676758 15.90625 0.01367188 C19.21298564 0.673525 20.40908706 1.94238555 22.5 4.53125 C23.03125 6.53125 23.03125 6.53125 23 8.53125 C23.0103125 9.19125 23.020625 9.85125 23.03125 10.53125 C22.2561666 13.44921104 20.80895833 14.6243588 18.5 16.53125 C15.90625 17.04882812 15.90625 17.04882812 13 17.0625 C11.948125 17.06765625 10.89625 17.0728125 9.8125 17.078125 C8.719375 17.06265625 7.62625 17.0471875 6.5 17.03125 C4.8603125 17.05445313 4.8603125 17.05445313 3.1875 17.078125 C2.135625 17.07296875 1.08375 17.0678125 0 17.0625 C-0.9590625 17.05798828 -1.918125 17.05347656 -2.90625 17.04882812 C-6.21298564 16.388975 -7.40908706 15.12011445 -9.5 12.53125 C-10.03125 10.53125 -10.03125 10.53125 -10 8.53125 C-10.01546875 7.54125 -10.01546875 7.54125 -10.03125 6.53125 C-8.65240655 1.34030994 -4.94094259 0.02324368 0 0 Z " fill="#000000" transform="translate(249.5,207.46875)"/>
<path d="M0 0 C0.66 -0.0103125 1.32 -0.020625 2 -0.03125 C4.91796104 0.7438334 6.0931088 2.19104167 8 4.5 C8.51757812 7.09375 8.51757812 7.09375 8.53125 10 C8.53640625 11.051875 8.5415625 12.10375 8.546875 13.1875 C8.53140625 14.280625 8.5159375 15.37375 8.5 16.5 C8.51546875 17.593125 8.5309375 18.68625 8.546875 19.8125 C8.54171875 20.864375 8.5365625 21.91625 8.53125 23 C8.52673828 23.9590625 8.52222656 24.918125 8.51757812 25.90625 C7.857725 29.21298564 6.58886445 30.40908706 4 32.5 C2 33.03125 2 33.03125 0 33 C-0.99 33.01546875 -0.99 33.01546875 -2 33.03125 C-4.91796104 32.2561666 -6.0931088 30.80895833 -8 28.5 C-8.51757812 25.90625 -8.51757812 25.90625 -8.53125 23 C-8.53640625 21.948125 -8.5415625 20.89625 -8.546875 19.8125 C-8.53140625 18.719375 -8.5159375 17.62625 -8.5 16.5 C-8.51546875 15.406875 -8.5309375 14.31375 -8.546875 13.1875 C-8.53914062 11.6096875 -8.53914062 11.6096875 -8.53125 10 C-8.52673828 9.0409375 -8.52222656 8.081875 -8.51757812 7.09375 C-7.60329874 2.51200272 -4.67433964 -0.07303656 0 0 Z " fill="#000000" transform="translate(256,79.5)"/>
<path d="M0 0 C2.5 1.5 2.5 1.5 4 4 C4.791013 8.02098277 4.62153384 10.96411027 2.5 14.5 C-1.03588973 16.62153384 -3.97901723 16.791013 -8 16 C-10.5 14.5 -10.5 14.5 -12 12 C-12.791013 7.97901723 -12.62153384 5.03588973 -10.5 1.5 C-6.96411027 -0.62153384 -4.02098277 -0.791013 0 0 Z " fill="#000000" transform="translate(300,144)"/>
<path d="M0 0 C2.5 1.5 2.5 1.5 4 4 C4.791013 8.02098277 4.62153384 10.96411027 2.5 14.5 C-1.03588973 16.62153384 -3.97901723 16.791013 -8 16 C-10.5 14.5 -10.5 14.5 -12 12 C-12.791013 7.97901723 -12.62153384 5.03588973 -10.5 1.5 C-6.96411027 -0.62153384 -4.02098277 -0.791013 0 0 Z " fill="#000000" transform="translate(220,144)"/>
</svg>
