<?xml version="1.0" encoding="UTF-8"?>
<svg version="1.1" xmlns="http://www.w3.org/2000/svg" width="512" height="512">
<path d="M0 0 C6.07917425 3.66538448 10.27370422 8.52597783 12.5 15.3125 C13.14730179 20.38406192 13.20141136 25.4390733 13.25 30.54296875 C13.2779607 32.05415684 13.30720389 33.56532167 13.33764648 35.07646179 C13.42447165 39.82165874 13.46843559 44.56664657 13.5 49.3125 C13.50517639 50.0618708 13.51035278 50.81124161 13.51568604 51.58332062 C13.57747315 61.35046513 13.55833852 71.11696994 13.51831055 80.88415527 C13.48497858 89.10112405 13.47379278 97.31812629 13.46875 105.53515625 C13.46820114 106.36169582 13.46765228 107.1882354 13.46708679 108.03982162 C13.46077723 125.55049109 13.68317281 143.05497855 14 160.5625 C14.01202454 161.22913792 14.02404907 161.89577583 14.03643799 162.5826149 C14.17990917 170.4928049 14.33358055 178.40275989 14.5 186.3125 C15.49 186.6425 16.48 186.9725 17.5 187.3125 C17.50054477 186.55896555 17.50108953 185.8054311 17.50165081 185.02906227 C17.51663959 166.66598255 17.55917106 148.30315389 17.63209057 129.94021034 C17.6666952 121.05988462 17.69209014 112.17971339 17.69555664 103.29931641 C17.69860285 95.5561711 17.7191813 87.81330128 17.76052457 80.07026231 C17.78179696 75.97299545 17.79448505 71.87611964 17.78615379 67.77879715 C17.77857681 63.91588342 17.79458252 60.05375966 17.82806015 56.19099045 C17.83624985 54.77938921 17.83609511 53.36770876 17.82659721 51.95611572 C17.77482585 43.41022717 18.38931253 36.40812232 23.5 29.3125 C29.0983705 23.83793861 34.6007441 21.62196475 42.4375 21 C49.82811579 21.25632194 55.00464451 24.33383325 60.640625 28.91015625 C67.04988881 37.19103281 67.08477017 46.42361161 67.04589844 56.49267578 C67.05464836 58.00153155 67.06513905 59.51037807 67.07722473 61.01921082 C67.10493204 65.08674553 67.10849282 69.15397518 67.10750484 73.22159052 C67.11064717 77.4830717 67.13629268 81.74441813 67.15948486 86.00582886 C67.19994775 94.06262667 67.22036266 102.11934374 67.23345876 110.17622745 C67.24936181 119.3541078 67.28779127 128.5318514 67.32805204 137.70965219 C67.41031799 156.57722481 67.46449309 175.44478433 67.5 194.3125 C68.49 194.3125 69.48 194.3125 70.5 194.3125 C70.50364563 193.00450943 70.50729126 191.69651886 70.51104736 190.34889221 C70.54803545 178.00470154 70.60585025 165.66075946 70.68390274 153.31675816 C70.72336241 146.97100879 70.75555854 140.62539789 70.77099609 134.27954102 C70.78617225 128.15207319 70.82063582 122.02498605 70.86830902 115.89768791 C70.88311274 113.56343843 70.89104043 111.2291346 70.89188385 108.89483833 C70.89425818 105.61771481 70.92137725 102.34163935 70.95410156 99.06469727 C70.94655602 97.62646606 70.94655602 97.62646606 70.93885803 96.15917969 C71.04684586 89.14043974 72.33987472 82.71808001 77.24982071 77.4267664 C83.40009818 71.77178565 89.04780005 70.85135853 97.26953125 71 C103.38754883 71.59182758 106.93366539 73.81578026 111.3125 78 C117.50162035 87.37209653 116.92378619 97.15004335 116.87231445 107.91992188 C116.87474555 109.70332552 116.87846795 111.4867278 116.88337708 113.27012634 C116.89275708 118.0997036 116.88337901 122.92907707 116.87004495 127.75863838 C116.85867177 132.84116749 116.8628432 137.9236874 116.86479187 143.00622559 C116.86567428 151.557081 116.85461618 160.10785708 116.83618164 168.65869141 C116.81512324 178.48148263 116.81148136 188.3041568 116.8177436 198.126966 C116.82348787 207.63044085 116.81772569 217.13387533 116.80657005 226.63734436 C116.80197936 230.65260074 116.80102595 234.66783196 116.8031559 238.68309021 C116.80967905 259.30967103 116.77425606 279.78337653 114.5 300.3125 C114.42044288 301.04257767 114.34088575 301.77265533 114.25891781 302.52485657 C113.82709926 306.42471016 113.32413302 310.3060546 112.75 314.1875 C112.49730347 315.91274902 112.49730347 315.91274902 112.23950195 317.67285156 C108.90273542 339.49783142 104.14238587 361.90626692 96.2507782 382.58605957 C92.75862816 391.99210332 91.80239071 400.5316348 91.8984375 410.546875 C91.89291936 412.04283802 91.8847787 413.53879338 91.87417603 415.034729 C91.85157736 418.91993925 91.85540899 422.80458011 91.86798096 426.68981934 C91.88649399 432.94786828 91.87635412 439.2055989 91.84212112 445.46356964 C91.83602901 447.63919609 91.84924314 449.81411452 91.86410522 451.98968506 C91.86044952 453.30245422 91.85679382 454.61522339 91.85302734 455.96777344 C91.85899429 457.70193512 91.85899429 457.70193512 91.86508179 459.47113037 C91.5 462.3125 91.5 462.3125 90.14199829 464.22467041 C88.5 465.3125 88.5 465.3125 85.875 465.0625 C83.5 464.3125 83.5 464.3125 82.5 463.3125 C82.41125865 460.20998799 82.38481545 457.1298188 82.40234375 454.02734375 C82.40446617 452.63111534 82.40446617 452.63111534 82.40663147 451.2066803 C82.41224828 448.22108809 82.4248036 445.23556971 82.4375 442.25 C82.44251284 440.23112087 82.44707612 438.21224057 82.45117188 436.19335938 C82.46222317 431.23304428 82.47949905 426.27278468 82.5 421.3125 C81.50249977 421.12428429 81.50249977 421.12428429 80.48484802 420.93226624 C71.68460657 419.23047345 71.68460657 419.23047345 67.59765625 417.68359375 C66.77942383 417.37526611 65.96119141 417.06693848 65.11816406 416.74926758 C63.85311035 416.25463013 63.85311035 416.25463013 62.5625 415.75 C61.66370117 415.40283936 60.76490234 415.05567871 59.83886719 414.69799805 C47.29835787 409.76634942 35.21777221 403.95842636 23.5 397.3125 C23.30470703 398.4571875 23.30470703 398.4571875 23.10546875 399.625 C21.72152157 405.76793972 17.50213601 409.78158047 12.5 413.3125 C10.18103191 414.02753557 7.84841489 414.70107837 5.5 415.3125 C5.5266481 426.55799676 6.70892084 434.42004647 12.5 444.3125 C14.46525774 448.65709989 15.25483041 452.55986407 14.5 457.3125 C12.27863437 461.67295847 10.06432971 464.44527421 5.5 466.3125 C1.45087441 466.90505496 -1.58310702 466.74038339 -5.3125 465 C-8.51258327 462.53136433 -10.20223538 461.20579386 -11.5 457.3125 C-11.98674726 450.88880724 -10.80838926 446.64083009 -8.0625 440.875 C-7.73701172 440.15634766 -7.41152344 439.43769531 -7.07617188 438.69726562 C-4.70305695 433.51555695 -4.70305695 433.51555695 -3.5 432.3125 C-3.26298761 429.45372091 -3.07780818 426.61366703 -2.9375 423.75 C-2.89431641 422.94369141 -2.85113281 422.13738281 -2.80664062 421.30664062 C-2.70024738 419.30881195 -2.59959112 417.3106793 -2.5 415.3125 C-3.8921875 415.11527344 -3.8921875 415.11527344 -5.3125 414.9140625 C-11.48415621 413.74931366 -15.24414575 409.78223883 -19.30078125 405.2890625 C-20.87177528 402.69973683 -21.14319976 400.29283143 -21.5 397.3125 C-22.04188965 397.58400879 -22.5837793 397.85551758 -23.14208984 398.13525391 C-53.64430808 413.3125 -53.64430808 413.3125 -62.5 413.3125 C-62.17 413.9725 -61.84 414.6325 -61.5 415.3125 C-61.39524338 416.80776303 -61.3513259 418.30752015 -61.33886719 419.80639648 C-61.32925964 420.73753769 -61.3196521 421.66867889 -61.30975342 422.6280365 C-61.30550354 423.63637039 -61.30125366 424.64470428 -61.296875 425.68359375 C-61.29117493 426.71686295 -61.28547485 427.75013214 -61.27960205 428.81471252 C-61.27014547 431.00284804 -61.26361546 433.19099783 -61.25976562 435.37915039 C-61.25004973 438.73283587 -61.21902797 442.08591131 -61.1875 445.43945312 C-61.18097116 447.56249635 -61.17572022 449.68554397 -61.171875 451.80859375 C-61.1533548 453.31805824 -61.1533548 453.31805824 -61.13446045 454.85801697 C-61.13746155 455.79231033 -61.14046265 456.7266037 -61.14355469 457.68920898 C-61.13808624 458.92259254 -61.13808624 458.92259254 -61.13250732 460.18089294 C-61.58877107 462.82740831 -62.34635487 463.7443839 -64.5 465.3125 C-68.92105263 464.89144737 -68.92105263 464.89144737 -70.5 463.3125 C-70.59636673 461.88789191 -70.62515512 460.45862519 -70.62597656 459.03076172 C-70.62978333 458.11825653 -70.63359009 457.20575134 -70.63751221 456.26559448 C-70.63853943 455.26787018 -70.63956665 454.27014587 -70.640625 453.2421875 C-70.65898284 451.12629158 -70.67855579 449.01040592 -70.69921875 446.89453125 C-70.72795305 443.56183968 -70.74999372 440.2297953 -70.75048828 436.89697266 C-70.76972202 418.5946946 -71.85422792 404.60445257 -83.9375 390 C-84.63979736 389.11538086 -85.34209473 388.23076172 -86.06567383 387.31933594 C-87.50364033 385.50953458 -88.94978849 383.70620184 -90.40429688 381.90966797 C-93.55549935 378.00443825 -96.61761833 374.03171016 -99.6875 370.0625 C-100.83020838 368.59464651 -101.97343334 367.12719502 -103.1171875 365.66015625 C-132.50334175 327.91312334 -132.50334175 327.91312334 -137.29956055 308.89282227 C-137.68736836 307.38011796 -137.68736836 307.38011796 -138.08301067 305.83685398 C-138.89456553 302.66353487 -139.69815131 299.48828431 -140.5 296.3125 C-140.74853855 295.33260479 -140.9970771 294.35270958 -141.25314713 293.34312057 C-143.02250148 286.36632609 -144.77326465 279.38494755 -146.51953125 272.40234375 C-147.06903418 270.20755725 -147.61856999 268.01277898 -148.1681366 265.81800842 C-149.3058673 261.27300227 -150.44265979 256.72776268 -151.57885742 252.18237305 C-153.03345325 246.36388695 -154.49131922 240.54622538 -155.94995594 234.72875118 C-157.0796613 230.22103219 -158.20723516 225.71278205 -159.33420372 221.20437813 C-159.87128828 219.05721686 -160.40913256 216.91024548 -160.94776344 214.7634716 C-161.69633296 211.7789845 -162.44192145 208.79376781 -163.18676758 205.80834961 C-163.4075145 204.93098145 -163.62826141 204.05361328 -163.85569763 203.1496582 C-166.11400674 194.06977268 -166.11400674 194.06977268 -166.5 190.3125 C-163.706805 186.12270749 -160.23037701 185.45012407 -155.5 184.3125 C-143.93686909 183.23744134 -135.25528358 184.64026881 -125.875 191.5 C-109.55882088 205.12544081 -102.8411384 223.56255563 -96.13061523 243.14428711 C-94.92244995 246.668906 -93.69258959 250.18538484 -92.45898438 253.70117188 C-91.67844733 255.94227679 -90.89910474 258.18379815 -90.12109375 260.42578125 C-89.75559921 261.47566727 -89.39010468 262.52555328 -89.01353455 263.60725403 C-88.51654808 265.06103706 -88.51654808 265.06103706 -88.00952148 266.54418945 C-87.71689926 267.39527786 -87.42427704 268.24636627 -87.12278748 269.12324524 C-86.5 271.3125 -86.5 271.3125 -86.5 274.3125 C-85.84 274.3125 -85.18 274.3125 -84.5 274.3125 C-84.50368717 273.12420845 -84.50737434 271.9359169 -84.51117325 270.71161652 C-84.59783796 242.49268896 -84.66377872 214.27376803 -84.70426132 186.05473593 C-84.70926404 182.58011018 -84.71444134 179.10548471 -84.71972656 175.63085938 C-84.7207758 174.93913523 -84.72182505 174.24741109 -84.72290608 173.53472561 C-84.74030286 162.3400626 -84.77183651 151.14548191 -84.80861118 139.95086771 C-84.84604092 128.46086363 -84.8679408 116.97091741 -84.87635398 105.48085356 C-84.88156966 99.02841843 -84.8938323 92.5761699 -84.92292023 86.12379456 C-84.95007969 80.04995901 -84.95844377 73.97638684 -84.95243073 67.90249634 C-84.95353071 65.67406279 -84.96148118 63.44562039 -84.9768219 61.21723938 C-84.99675761 58.17188815 -84.99192559 55.12752805 -84.98101807 52.08215332 C-84.99266943 51.20275605 -85.0043208 50.32335877 -85.01632524 49.4173131 C-84.95122754 42.68148299 -83.29087372 37.23896273 -78.5703125 32.2890625 C-72.13281164 27.81642134 -66.54082541 25.34699751 -58.5 26.3125 C-51.36153902 28.00145195 -47.52747636 31.49656061 -43.25 37.4375 C-40.75903892 41.5297932 -40.37065 44.39654979 -40.34178162 49.10209656 C-40.3319928 50.30944458 -40.32220398 51.5167926 -40.31211853 52.76072693 C-40.3062144 54.10049399 -40.30040395 55.44026146 -40.29467773 56.7800293 C-40.28509865 58.1893238 -40.27508855 59.59861544 -40.26467896 61.00790405 C-40.23762708 64.83609835 -40.21661905 68.66430498 -40.19667697 72.49254203 C-40.17481917 76.49243149 -40.14742947 80.49228293 -40.12062073 84.49214172 C-40.07069106 92.06749642 -40.02575324 99.64287222 -39.98259836 107.21826822 C-39.93322834 115.84214074 -39.87830934 124.4659751 -39.82291877 133.08981073 C-39.70909451 150.83067173 -39.60225643 168.57156874 -39.5 186.3125 C-38.18 186.6425 -36.86 186.9725 -35.5 187.3125 C-35.50276538 186.4558909 -35.50553076 185.59928181 -35.50837994 184.71671486 C-35.57470284 163.85022553 -35.62431127 142.98375442 -35.65543652 122.11718178 C-35.67088946 112.02616205 -35.69194888 101.93521278 -35.72631836 91.84423828 C-35.75626889 83.0464655 -35.77558643 74.24874377 -35.78226548 65.45092142 C-35.78616817 60.79478851 -35.79530717 56.13880161 -35.81719017 51.48271561 C-35.83764471 47.09476279 -35.84381576 42.70701529 -35.83932304 38.31901932 C-35.84014425 36.71387616 -35.84605629 35.1087257 -35.85761642 33.50362396 C-35.92318498 23.92479504 -35.87031032 14.92968386 -30.8125 6.5 C-22.57057442 -1.29641609 -10.82794608 -5.13447539 0 0 Z M-22.07421875 10.6796875 C-26.32872493 15.38524448 -26.62753411 19.83516191 -26.61352539 25.92895508 C-26.61344986 27.02971878 -26.61337433 28.13048248 -26.61329651 29.26460266 C-26.60813522 30.4418541 -26.60297394 31.61910553 -26.59765625 32.83203125 C-26.5962413 34.04573898 -26.59482635 35.25944672 -26.59336853 36.50993347 C-26.58777665 40.38164752 -26.57522558 44.25330347 -26.5625 48.125 C-26.55748395 50.75195229 -26.55292123 53.37890549 -26.54882812 56.00585938 C-26.53780987 62.44142603 -26.52107976 68.87695886 -26.5 75.3125 C-25.60869385 75.15023926 -24.7173877 74.98797852 -23.79907227 74.82080078 C-21.03220769 74.39449929 -18.50402717 74.18374871 -15.71484375 74.1796875 C-14.42416992 74.17775391 -14.42416992 74.17775391 -13.10742188 74.17578125 C-11.78581055 74.18158203 -11.78581055 74.18158203 -10.4375 74.1875 C-9.55255859 74.18363281 -8.66761719 74.17976563 -7.75585938 74.17578125 C-6.89669922 74.17707031 -6.03753906 74.17835937 -5.15234375 74.1796875 C-3.99206665 74.18137939 -3.99206665 74.18137939 -2.80834961 74.18310547 C-0.29752739 74.3238496 2.04118986 74.79906203 4.5 75.3125 C4.57627947 67.62620424 4.62869635 59.9400067 4.66479492 52.25341797 C4.67984933 49.64042513 4.7002973 47.02745742 4.72631836 44.41455078 C4.76284778 40.65130395 4.7797604 36.88839225 4.79296875 33.125 C4.80845261 31.96323242 4.82393646 30.80146484 4.83988953 29.60449219 C4.84142013 22.17052085 4.5571081 15.72926788 -0.625 9.9375 C-7.94852825 5.79811447 -15.38676051 4.87172128 -22.07421875 10.6796875 Z M30.1875 35.875 C27.29042195 40.05966829 27.36844887 43.20416685 27.40234375 48.1640625 C27.4037587 48.93809418 27.40517365 49.71212585 27.40663147 50.50961304 C27.41223597 52.98561442 27.42478917 55.46152588 27.4375 57.9375 C27.44251442 59.61458203 27.44707743 61.29166547 27.45117188 62.96875 C27.46220685 67.08336806 27.47947446 71.19791878 27.5 75.3125 C28.59248047 75.06910889 28.59248047 75.06910889 29.70703125 74.82080078 C32.27683833 74.35311386 34.58242472 74.18345517 37.1875 74.1796875 C38.05117188 74.17839844 38.91484375 74.17710938 39.8046875 74.17578125 C40.69414062 74.17964844 41.58359375 74.18351562 42.5 74.1875 C43.38945312 74.18363281 44.27890625 74.17976563 45.1953125 74.17578125 C46.05898438 74.17707031 46.92265625 74.17835937 47.8125 74.1796875 C48.59238281 74.18081543 49.37226563 74.18194336 50.17578125 74.18310547 C52.69249935 74.32321688 55.04237114 74.76497074 57.5 75.3125 C57.59940876 70.59861295 57.67172034 65.88534558 57.71972656 61.1706543 C57.73975347 59.56930909 57.76698354 57.9680362 57.80175781 56.36694336 C57.85067419 54.05564463 57.87305711 51.74531846 57.890625 49.43359375 C57.91127014 48.72601425 57.93191528 48.01843475 57.95318604 47.28941345 C57.95563953 41.76581255 56.51734551 38.76481722 53.5 34.3125 C50.01705637 31.4471505 46.3068627 30.40987998 41.875 29.875 C36.74272191 30.54029531 33.66229285 32.02455387 30.1875 35.875 Z M-74.14668274 41.02886963 C-76.00243871 44.16033098 -75.86044126 46.47189649 -75.84057617 50.10058594 C-75.84101425 50.77416641 -75.84145233 51.44774689 -75.84190369 52.14173889 C-75.83981946 54.36041604 -75.81650699 56.57833043 -75.79296875 58.796875 C-75.78737146 60.33815091 -75.78310199 61.87943217 -75.78010559 63.42071533 C-75.76866718 67.47160656 -75.73920889 71.52217361 -75.70599365 75.57293701 C-75.67527098 79.70873632 -75.66159557 83.84458815 -75.64648438 87.98046875 C-75.614338 96.09129438 -75.56315407 104.20185683 -75.5 112.3125 C-74.37722656 112.22871094 -73.25445312 112.14492187 -72.09765625 112.05859375 C-64.42484072 111.52344034 -57.13295672 111.06347072 -49.5 112.3125 C-49.40718707 103.55009692 -49.33617814 94.78786389 -49.29275131 86.02507591 C-49.2719051 81.95583061 -49.24364247 77.88692241 -49.19824219 73.81787109 C-49.1546774 69.88859382 -49.13084058 65.95964013 -49.12049103 62.03013992 C-49.11311862 60.53344252 -49.0987218 59.03676218 -49.07707977 57.54020309 C-49.04790243 55.43836398 -49.04404968 53.33784994 -49.04589844 51.23583984 C-49.03701599 50.04115082 -49.02813354 48.84646179 -49.01898193 47.61557007 C-49.7321419 42.71842067 -51.98618453 39.5740129 -55.75 36.4375 C-63.28327162 33.35570707 -68.66104352 35.31108057 -74.14668274 41.02886963 Z M83.5 83.3125 C80.94176951 87.65987145 80.13526337 90.78093565 80.20703125 95.8046875 C80.21669922 97.00351563 80.22636719 98.20234375 80.23632812 99.4375 C80.26146484 100.675 80.28660156 101.9125 80.3125 103.1875 C80.32603516 104.44820312 80.33957031 105.70890625 80.35351562 107.0078125 C80.38876565 110.10981454 80.43804496 113.21093534 80.5 116.3125 C81.87188477 116.06910889 81.87188477 116.06910889 83.27148438 115.82080078 C86.89259496 115.25068945 90.33524314 115.18005131 94 115.1875 C95.90265625 115.18363281 95.90265625 115.18363281 97.84375 115.1796875 C101.16664416 115.30039092 104.23352745 115.73298311 107.5 116.3125 C107.61673963 111.95856096 107.68743418 107.60502789 107.75 103.25 C107.78351563 102.02087891 107.81703125 100.79175781 107.8515625 99.52539062 C107.92647974 92.57681706 107.86484777 87.8691959 103.5 82.3125 C96.99476465 77.83111565 89.38234042 77.86696704 83.5 83.3125 Z M-26.5 84.3125 C-26.5 87.6125 -26.5 90.9125 -26.5 94.3125 C-24.78683594 94.06886719 -24.78683594 94.06886719 -23.0390625 93.8203125 C-18.63578327 93.27159915 -14.30780431 93.16358199 -9.875 93.1875 C-9.15054688 93.18363281 -8.42609375 93.17976563 -7.6796875 93.17578125 C-3.51132011 93.18333264 0.39381977 93.49644525 4.5 94.3125 C4.5 91.0125 4.5 87.7125 4.5 84.3125 C-5.68364682 80.06931383 -16.26094458 80.89948153 -26.5 84.3125 Z M27.5 84.3125 C27.5 87.2825 27.5 90.2525 27.5 93.3125 C31.46 92.6525 35.42 91.9925 39.5 91.3125 C39.5 88.3425 39.5 85.3725 39.5 82.3125 C35.03160785 82.09971942 31.67737474 82.72111915 27.5 84.3125 Z M48.5 82.3125 C48.5 85.6125 48.5 88.9125 48.5 92.3125 C51.47 92.6425 54.44 92.9725 57.5 93.3125 C57.5 90.3425 57.5 87.3725 57.5 84.3125 C53.045 83.3225 53.045 83.3225 48.5 82.3125 Z M27.5 102.3125 C27.5 104.2925 27.5 106.2725 27.5 108.3125 C28.66015625 108.22871094 29.8203125 108.14492187 31.015625 108.05859375 C39.95972743 107.45944434 48.57106098 107.17449797 57.5 108.3125 C57.5 106.3325 57.5 104.3525 57.5 102.3125 C47.72344119 99.12015427 37.25449162 99.1488811 27.5 102.3125 Z M-26.5 104.3125 C-26.60384263 106.93307538 -26.64361488 109.52815383 -26.6418457 112.14941406 C-26.64532013 112.97058212 -26.64879456 113.79175018 -26.65237427 114.63780212 C-26.65974548 116.42754687 -26.66508355 118.21730085 -26.66866493 120.00705719 C-26.67581071 122.83980283 -26.69146369 125.67237325 -26.71000671 128.50506592 C-26.76255998 136.56145801 -26.8104483 144.61775667 -26.82592773 152.67431641 C-26.83600768 157.59694113 -26.86533613 162.51912939 -26.90724754 167.44158173 C-26.91956614 169.31860808 -26.92467723 171.19569608 -26.92244911 173.07276154 C-26.92009697 175.70165051 -26.94225639 178.32928793 -26.9699707 180.95800781 C-26.96336929 181.73327316 -26.95676788 182.50853851 -26.94996643 183.30729675 C-27.01407363 187.0126983 -27.38372279 189.13033527 -29.39665222 192.28387451 C-32.3400216 195.12267949 -34.36704793 195.22482287 -38.31640625 195.4453125 C-41.47819327 195.25300345 -43.13446885 194.39973336 -45.5 192.3125 C-48.35235511 188.38904472 -48.88563305 185.59229551 -48.93237305 180.77807617 C-48.95216721 179.47710495 -48.97196136 178.17613373 -48.99235535 176.83573914 C-48.99912414 175.42565048 -49.00557112 174.01556025 -49.01171875 172.60546875 C-49.02857343 171.15528345 -49.04672474 169.7051127 -49.06611633 168.25495911 C-49.1135373 164.44923445 -49.14339744 160.64356876 -49.16955566 156.83764648 C-49.19940133 152.94958861 -49.24591782 149.06173371 -49.29101562 145.17382812 C-49.37695866 137.55348631 -49.44434358 129.9331296 -49.5 122.3125 C-56.4723785 118.64753181 -64.10845332 118.4000444 -71.64501953 120.3269043 C-72.91716309 120.65215088 -74.18930664 120.97739746 -75.5 121.3125 C-75.50238835 122.10671954 -75.50477671 122.90093908 -75.50723743 123.71922588 C-75.56636149 143.04020892 -75.64189491 162.36106393 -75.73571491 181.68191051 C-75.78068937 191.02531494 -75.82010023 200.36868111 -75.84643555 209.7121582 C-75.86940227 217.85549422 -75.90278541 225.99870933 -75.94870156 234.14194947 C-75.97265171 238.45414516 -75.99136872 242.76622098 -75.99761391 247.07848167 C-76.00365669 251.13737383 -76.02362712 255.19595921 -76.05427551 259.25473785 C-76.06306872 260.7442315 -76.06677566 262.23376522 -76.06500816 263.72328377 C-76.0633562 265.75783375 -76.08181643 267.79237038 -76.10127258 269.826828 C-76.10588155 270.96524234 -76.11049051 272.10365667 -76.11523914 273.27656841 C-76.66912355 277.64695887 -78.4268653 280.2393653 -81.5 283.3125 C-88.7702172 283.88950136 -88.7702172 283.88950136 -90.98803711 282.13598633 C-92.91294129 279.81447667 -93.67633025 277.62346138 -94.6640625 274.7734375 C-95.05940186 273.64760254 -95.45474121 272.52176758 -95.86206055 271.36181641 C-96.27883057 270.14929199 -96.69560059 268.93676758 -97.125 267.6875 C-97.56642775 266.42720811 -98.00890553 265.16728355 -98.45239258 263.90771484 C-99.81040077 260.04569221 -101.15620562 256.17948743 -102.5 252.3125 C-112.93955684 218.94288383 -112.93955684 218.94288383 -136.98046875 194.99609375 C-142.81556225 192.46255088 -148.01519121 190.99119768 -154.19921875 193.3359375 C-155.33810547 193.81933594 -155.33810547 193.81933594 -156.5 194.3125 C-155.40644114 198.97779385 -154.30354587 203.64074186 -153.19189453 208.30175781 C-152.81496109 209.88805998 -152.44059744 211.47497504 -152.06884766 213.0625 C-151.53440159 215.34280321 -150.9907866 217.62075067 -150.4453125 219.8984375 C-150.28064484 220.60994965 -150.11597717 221.32146179 -149.94631958 222.05453491 C-148.99709847 226.08430774 -148.99709847 226.08430774 -146.5 229.3125 C-144.56087416 228.52482408 -142.62375234 227.7322133 -140.6875 226.9375 C-139.60855469 226.49664062 -138.52960938 226.05578125 -137.41796875 225.6015625 C-134.39269888 224.3645881 -134.39269888 224.3645881 -131.5 222.3125 C-128.8125 222.1875 -128.8125 222.1875 -126.5 222.3125 C-126.17 223.9625 -125.84 225.6125 -125.5 227.3125 C-127.48 228.9625 -129.46 230.6125 -131.5 232.3125 C-131.17 233.9625 -130.84 235.6125 -130.5 237.3125 C-127.86 237.3125 -125.22 237.3125 -122.5 237.3125 C-122.005 239.7875 -122.005 239.7875 -121.5 242.3125 C-127.81393682 246.98949024 -134.01947132 249.93550958 -141.5 252.3125 C-141.17 254.6225 -140.84 256.9325 -140.5 259.3125 C-134.81042724 258.17458545 -130.582637 256.4397256 -125.67578125 253.3359375 C-123.12397719 252.13562751 -121.28717552 252.12701371 -118.5 252.3125 C-117.6875 254 -117.6875 254 -117.5 256.3125 C-122.04239287 262.63940436 -130.1249419 265.5591954 -137.5 267.3125 C-136.92017979 273.44848725 -135.96155236 279.25746638 -134.4609375 285.23046875 C-134.25699371 286.05017654 -134.05304993 286.86988434 -133.84292603 287.71443176 C-133.4108186 289.43879503 -132.9753366 291.16231589 -132.53662109 292.88500977 C-131.88199243 295.47236311 -131.25127479 298.06480365 -130.62109375 300.65820312 C-127.22798634 314.25945139 -122.58414725 326.21877117 -113.75 337.3125 C-113.24267334 337.96984131 -112.73534668 338.62718262 -112.21264648 339.30444336 C-110.65421572 341.31724542 -109.07930797 343.31605356 -107.5 345.3125 C-106.48528316 346.60515962 -105.47095254 347.89812253 -104.45703125 349.19140625 C-103.05683679 350.97616769 -101.65486596 352.75908175 -100.24121094 354.53320312 C-97.19122244 358.36975524 -94.32402509 362.30632487 -91.5 366.3125 C-88.53 365.3225 -85.56 364.3325 -82.5 363.3125 C-82.78875 362.69375 -83.0775 362.075 -83.375 361.4375 C-85.49155548 355.55817922 -87.4862754 349.96576013 -85.25 343.875 C-83.5 340.3125 -83.5 340.3125 -81.5 337.3125 C-82.16 336.384375 -82.82 335.45625 -83.5 334.5 C-86.28683787 329.63047191 -86.19448501 324.77521747 -85.5 319.3125 C-83.58608084 314.5780684 -80.04631214 311.58565607 -75.5 309.3125 C-75.53480469 308.44367188 -75.56960937 307.57484375 -75.60546875 306.6796875 C-75.89038305 294.55047881 -75.89038305 294.55047881 -72.5 290.3125 C-68.16564419 286.82013825 -64.13641391 284.73523104 -58.5 284.3125 C-58.32984375 283.72082031 -58.1596875 283.12914062 -57.984375 282.51953125 C-56.28911199 276.99189176 -54.64136075 272.47895569 -49.6875 269.0625 C-46.67048721 268.02809562 -43.65976879 267.67708871 -40.5 267.3125 C-40.40203125 266.64863281 -40.3040625 265.98476563 -40.203125 265.30078125 C-38.59276944 255.79135402 -38.59276944 255.79135402 -34.5 252.3125 C-32.82095361 251.72524732 -31.13225462 251.16524929 -29.4375 250.625 C-25.59053246 249.2838806 -25.59053246 249.2838806 -23.359375 246.05078125 C-22.91086567 244.30628858 -22.50063271 242.55151384 -22.12890625 240.7890625 C-21.140377 236.89634484 -19.39435615 235.06902966 -16.5 232.3125 C-11.44447658 229.3065131 -5.71898654 229.94266891 -0.125 230.875 C2.47089775 231.57212266 2.47089775 231.57212266 4.5 230.3125 C10.7348693 229.77501127 15.40988744 230.47516459 20.5 234.3125 C24.09895635 238.50263938 25.0598915 242.92117092 25.5 248.3125 C26.49580078 248.64121094 26.49580078 248.64121094 27.51171875 248.9765625 C33.53091311 251.13820018 37.15564715 252.77341558 40.5 258.3125 C41.41951243 261.28510368 42.04205551 264.23675341 42.5 267.3125 C43.69625 267.539375 44.8925 267.76625 46.125 268 C50.39781511 269.10972407 53.7939056 270.7318751 56.5 274.3125 C57.12731773 276.00517629 57.70784489 277.71565553 58.25 279.4375 C59.08298126 282.09373023 59.08298126 282.09373023 60.5 284.3125 C62.99324346 285.49010461 65.32385499 285.98949903 68.01953125 286.54296875 C72.11226283 287.81268233 74.30517261 290.74894261 76.5 294.3125 C78.10116168 299.11598505 78.1117046 304.4773862 76.5 309.3125 C77.86125 309.869375 77.86125 309.869375 79.25 310.4375 C83.83258407 313.0812985 85.84539519 316.34868557 87.5 321.3125 C87.93921869 325.79253061 87.5437234 328.57468963 85.375 332.4375 C83.61116044 335.51415629 83.61116044 335.51415629 84.125 339 C84.57875 339.763125 85.0325 340.52625 85.5 341.3125 C87.58531734 345.59898565 88.11955651 349.59647281 87.5 354.3125 C86.11802549 357.64180223 84.49743332 360.31635003 82.5 363.3125 C86.36270598 365.73290823 86.36270598 365.73290823 90.703125 365.90234375 C91.59257812 365.61037109 91.59257812 365.61037109 92.5 365.3125 C103.22094645 324.84522575 108.03019058 285.15397905 107.80418181 243.37467194 C107.78497549 239.2001559 107.78363102 235.02562762 107.78010559 230.85107422 C107.77091049 223.00389912 107.74647351 215.1568547 107.71605712 207.30973625 C107.68211385 198.3515049 107.66592851 189.39326613 107.65097082 180.43498611 C107.61990709 162.06075096 107.56740082 143.68663611 107.5 125.3125 C102.79533575 123.64315649 99.01235714 123.04212456 94 123.0625 C92.7315625 123.05734375 91.463125 123.0521875 90.15625 123.046875 C86.57879076 123.30677588 83.85792779 124.1210154 80.5 125.3125 C80.48786972 126.63341644 80.48786972 126.63341644 80.47549438 127.98101807 C80.39755487 136.27980349 80.31026606 144.57842655 80.21247292 152.87700272 C80.16252625 157.14339191 80.11619608 161.40975653 80.078125 165.67626953 C80.04125157 169.79366346 79.99488606 173.91085107 79.94193649 178.02806854 C79.92340347 179.59889863 79.90829146 181.16977293 79.89665604 182.74066925 C79.87977472 184.94093453 79.85073583 187.14072844 79.81884766 189.34082031 C79.80552399 190.59324524 79.79220032 191.84567017 79.7784729 193.13604736 C79.513682 196.15643376 79.19064757 197.83364115 77.5 200.3125 C73.98547839 202.73919349 71.48892786 203.54705793 67.3125 203.0625 C63.5 202.3125 63.5 202.3125 60.5 201.3125 C58.43532512 196.76356669 58.19615703 192.38748142 58.18115234 187.47119141 C58.16608391 186.32870941 58.16608391 186.32870941 58.15071106 185.16314697 C58.11999591 182.66345932 58.10287668 180.16387821 58.0859375 177.6640625 C58.06721644 175.9238494 58.04764233 174.18364528 58.0272522 172.44345093 C57.97602404 167.87657989 57.93634858 163.30967945 57.89910889 158.74267578 C57.85901071 154.07707502 57.80794493 149.41159557 57.7578125 144.74609375 C57.66116359 135.60164784 57.57672362 126.45713328 57.5 117.3125 C56.25871338 116.98797852 55.01742676 116.66345703 53.73852539 116.32910156 C53.04030167 116.14655823 52.34207794 115.96401489 51.62269592 115.77593994 C48.38247862 115.06851591 45.24566292 115.04870161 41.9375 115.0625 C40.69871094 115.05734375 39.45992187 115.0521875 38.18359375 115.046875 C34.37308199 115.32165209 31.14719864 116.21558996 27.5 117.3125 C27.49413376 118.16361359 27.48826752 119.01472717 27.48222351 119.89163208 C27.42424398 127.9249617 27.35213714 135.95801485 27.26428509 143.99107552 C27.21961767 148.12065797 27.18035373 152.25014261 27.15356445 156.37988281 C27.127495 160.36768496 27.0870673 164.35510993 27.03681374 168.34267807 C27.02016954 169.86160453 27.00864003 171.3805962 27.00238609 172.89960098 C26.99271792 175.03258763 26.96462874 177.16461468 26.93237305 179.29736328 C26.91571846 181.11604416 26.91571846 181.11604416 26.89872742 182.97146606 C26.34273373 187.63027233 24.81996935 190.99253065 21.5 194.3125 C16.90337357 195.30843573 14.55810061 195.70438911 10.125 194.0625 C7.5 192.3125 7.5 192.3125 5.5 189.3125 C5.28672725 186.5357356 5.18871764 183.85592132 5.18115234 181.07739258 C5.16608391 179.81852486 5.16608391 179.81852486 5.15071106 178.53422546 C5.1198049 175.75850107 5.10282333 172.98287344 5.0859375 170.20703125 C5.06723183 168.28316918 5.04765887 166.35931536 5.0272522 164.43547058 C4.97586153 159.37042094 4.93627294 154.30534468 4.89910889 149.24017334 C4.85911268 144.07215757 4.80800037 138.90425319 4.7578125 133.73632812 C4.66097112 123.59513026 4.57659263 113.45386959 4.5 103.3125 C-3.473485 100.00717353 -19.61155628 97.42405628 -26.5 104.3125 Z M-145.5 237.3125 C-145.17 239.6225 -144.84 241.9325 -144.5 244.3125 C-142.19 243.6525 -139.88 242.9925 -137.5 242.3125 C-138.16 240.3325 -138.82 238.3525 -139.5 236.3125 C-142.55270463 236.15438612 -142.55270463 236.15438612 -145.5 237.3125 Z M-13.375 240.3125 C-15.6525789 243.5279055 -15.77402257 243.96532104 -15.3125 247.625 C-15.044375 248.841875 -14.77625 250.05875 -14.5 251.3125 C-10.71429586 250.05059862 -10.28168429 248.76394185 -8.3125 245.375 C-7.51779297 244.03115234 -7.51779297 244.03115234 -6.70703125 242.66015625 C-5.3475841 240.45601611 -5.3475841 240.45601611 -5.5 238.3125 C-9.10470659 237.79754192 -10.33057493 238.19463908 -13.375 240.3125 Z M6.5 238.3125 C7.23709784 239.92263585 7.99025857 241.52542391 8.75 243.125 C9.16765625 244.01832031 9.5853125 244.91164063 10.015625 245.83203125 C11.56539789 248.42178331 12.98400766 249.69430834 15.5 251.3125 C16.9284032 250.09559459 16.9284032 250.09559459 16.875 246.5 C16.83202345 243.0802946 16.68665176 242.5258163 14.3125 239.8125 C11.30411625 238.20802867 9.82329416 238.17845116 6.5 238.3125 Z M0.5 247.3125 C-0.37202888 248.35733775 -1.20109017 249.43808871 -2.01171875 250.53125 C-2.52283203 251.21703125 -3.03394531 251.9028125 -3.56054688 252.609375 C-4.09744141 253.33640625 -4.63433594 254.0634375 -5.1875 254.8125 C-6.23307292 256.21875 -7.27864583 257.625 -8.32421875 259.03125 C-8.84016602 259.74023438 -9.35611328 260.44921875 -9.88769531 261.1796875 C-10.97691306 262.62054248 -12.1196626 264.02221621 -13.30761719 265.3828125 C-14.9473095 267.31208137 -16.34651979 269.05761931 -17.5 271.3125 C-17.1692767 275.00504255 -17.1692767 275.00504255 -15.375 278.3125 C-14.85679687 279.446875 -14.33859375 280.58125 -13.8046875 281.75 C-13.37414062 282.595625 -12.94359375 283.44125 -12.5 284.3125 C-7.39215039 282.45713231 -5.88557286 278.17323245 -3.37890625 273.6484375 C-1.5 271.3125 -1.5 271.3125 1 270.6171875 C3.5 271.3125 3.5 271.3125 5.37890625 273.796875 C5.93449219 274.87453125 6.49007812 275.9521875 7.0625 277.0625 C9.17904304 281.10983865 11.09435728 284.24220503 14.5 287.3125 C15.39401475 285.06846298 16.26515289 282.81959867 17.125 280.5625 C17.38023437 279.92828125 17.63546875 279.2940625 17.8984375 278.640625 C19.28149951 275.03542063 19.28149951 275.03542063 18.98046875 271.28125 C16.76410385 268.33389404 14.50836832 265.42774114 12.1875 262.5625 C8.25480268 257.6501454 4.74133258 252.71472096 1.5 247.3125 C1.17 247.3125 0.84 247.3125 0.5 247.3125 Z M-29.375 258.875 C-31.93493704 261.81139836 -32.5 263.43045363 -32.5 267.3125 C-31.18864588 269.67540685 -31.18864588 269.67540685 -29.5 271.3125 C-24.05510966 266.1906837 -24.05510966 266.1906837 -19.5 260.3125 C-19.5 259.6525 -19.5 258.9925 -19.5 258.3125 C-24.59854387 257.10827008 -24.59854387 257.10827008 -29.375 258.875 Z M20.5 258.3125 C22.01553404 261.79025179 24.0773456 264.2682984 26.625 267.0625 C27.34945312 267.86171875 28.07390625 268.6609375 28.8203125 269.484375 C29.37460937 270.08765625 29.92890625 270.6909375 30.5 271.3125 C32.87343313 269.19650274 33.45472391 268.66716273 33.875 265.375 C33.44735698 261.88258204 33.19227927 260.58411063 30.5 258.3125 C27.08950079 257.41977219 23.75985772 256.68257114 20.5 258.3125 Z M-48.5 278.3125 C-49.9783226 281.26914519 -49.56032783 284.05479737 -49.5 287.3125 C-44.09510481 285.79237323 -40.51507372 282.03864782 -36.5 278.3125 C-37.7488427 276.7291747 -37.7488427 276.7291747 -39.5 275.3125 C-43.79387011 275.3125 -45.08866484 275.91534556 -48.5 278.3125 Z M38.5 277.3125 C42.11251516 281.87298012 45.48797445 285.32915146 50.5 288.3125 C51.37794657 284.88052703 51.73052342 282.90914885 50.4375 279.5625 C46.76185952 275.29401428 43.27931168 274.57704083 38.5 277.3125 Z M-27.87890625 281.375 C-28.88920898 282.32246094 -28.88920898 282.32246094 -29.91992188 283.2890625 C-30.98049805 284.29066406 -30.98049805 284.29066406 -32.0625 285.3125 C-32.77341797 285.98023438 -33.48433594 286.64796875 -34.21679688 287.3359375 C-35.97995338 288.99259462 -37.74090343 290.6515342 -39.5 292.3125 C-38.61032656 293.40089774 -37.71288426 294.48294608 -36.8125 295.5625 C-36.31363281 296.16578125 -35.81476563 296.7690625 -35.30078125 297.390625 C-33.11308067 299.81703961 -33.11308067 299.81703961 -28.5 303.3125 C-25.2 300.3425 -21.9 297.3725 -18.5 294.3125 C-19.64611735 288.58191324 -21.02394523 283.60225338 -23.5 278.3125 C-25.35965075 278.3125 -26.59488334 280.16650785 -27.87890625 281.375 Z M26.5 279.3125 C25.68618205 281.24944678 24.87399084 283.18707711 24.0625 285.125 C23.61003906 286.20394531 23.15757812 287.28289062 22.69140625 288.39453125 C21.89624987 290.3420126 21.16520352 292.31688943 20.5 294.3125 C23.47 297.2825 26.44 300.2525 29.5 303.3125 C33.30625387 300.09182365 37.04081536 296.91005203 40.5 293.3125 C39.07904457 289.9798468 37.3834126 288.07643478 34.625 285.75 C33.60792969 284.88181641 33.60792969 284.88181641 32.5703125 283.99609375 C30.58348175 282.38038799 28.56062859 280.8325601 26.5 279.3125 Z M-0.5 284.3125 C-1.63934327 285.81324786 -2.7089953 287.36694073 -3.75 288.9375 C-10.23892046 298.1025081 -18.44017776 306.02131947 -27.0625 313.1875 C-31.385755 316.8335069 -33.99516037 321.30282075 -36.5 326.3125 C-36.57092842 328.5197923 -36.58415025 330.72917452 -36.5625 332.9375 C-36.55347656 334.12601562 -36.54445312 335.31453125 -36.53515625 336.5390625 C-36.52355469 337.45429688 -36.51195312 338.36953125 -36.5 339.3125 C-30.64046118 336.15070858 -25.38885795 332.42274955 -20.0625 328.4375 C-19.25490234 327.83808594 -18.44730469 327.23867188 -17.61523438 326.62109375 C-16.81537109 326.02683594 -16.01550781 325.43257813 -15.19140625 324.8203125 C-14.40523926 324.23926758 -13.61907227 323.65822266 -12.80908203 323.05957031 C-11.28044305 321.90298958 -9.77521118 320.71474596 -8.29638672 319.49511719 C-3.19355617 315.35108731 -3.19355617 315.35108731 0.16796875 315.1640625 C3.15855603 316.63681402 5.32786175 318.45940856 7.8125 320.6875 C12.60043471 324.85736559 17.57153535 328.60411158 22.8125 332.1875 C23.46968018 332.63915527 24.12686035 333.09081055 24.80395508 333.55615234 C28.93097619 336.35333818 33.14316958 338.8889074 37.5 341.3125 C39.69345339 334.45795816 38.72727047 327.62176189 35.5 321.3125 C30.65248497 314.719012 24.44538041 309.38497795 18.39379883 303.93457031 C11.99480472 298.08632088 6.31345141 291.53267712 1.5 284.3125 C0.84 284.3125 0.18 284.3125 -0.5 284.3125 Z M-65.375 294.9375 C-67.72344404 297.56223158 -68.41255024 298.81450971 -68.5 302.3125 C-67.65922128 304.58107146 -67.65922128 304.58107146 -66.5 306.3125 C-63.06021254 305.16590418 -62.49261595 304.30730386 -60.4375 301.4375 C-59.93089844 300.73882812 -59.42429687 300.04015625 -58.90234375 299.3203125 C-57.74677489 297.66582115 -56.61943406 295.99165109 -55.5 294.3125 C-60.61516371 293.09376975 -60.61516371 293.09376975 -65.375 294.9375 Z M58.5 293.3125 C58.5 297.34631023 60.09573562 298.80683637 62.5 302 C63.2425 302.99386719 63.985 303.98773438 64.75 305.01171875 C65.3275 305.77097656 65.905 306.53023438 66.5 307.3125 C68.85750253 305.20513037 69.45179593 304.63615591 69.9375 301.375 C69.72287986 298.27924617 69.72287986 298.27924617 67.9375 296 C64.82404139 293.84452866 62.23353364 293.5996949 58.5 293.3125 Z M-49.13671875 299.859375 C-54.18809681 305.28599829 -61.5 313.45740548 -61.5 321.3125 C-50.74080267 322.73779221 -50.74080267 322.73779221 -41.00390625 319.44921875 C-39.45384822 317.08740963 -38.38296397 314.99245095 -37.5 312.3125 C-37.19449219 311.6628125 -36.88898438 311.013125 -36.57421875 310.34375 C-36.26880056 308.02833458 -36.26880056 308.02833458 -38.5546875 305.734375 C-39.48539063 304.85265625 -40.41609375 303.9709375 -41.375 303.0625 C-42.30054688 302.17046875 -43.22609375 301.2784375 -44.1796875 300.359375 C-46.77198576 297.7263811 -46.77198576 297.7263811 -49.13671875 299.859375 Z M46.5 298.3125 C44.90328601 299.92650692 43.37003953 301.6038834 41.875 303.3125 C41.05773437 304.240625 40.24046875 305.16875 39.3984375 306.125 C38.77195312 306.846875 38.14546875 307.56875 37.5 308.3125 C38.95668783 311.28033129 40.51232086 314.17665313 42.125 317.0625 C42.90875 318.465 43.6925 319.8675 44.5 321.3125 C50.44 321.3125 56.38 321.3125 62.5 321.3125 C60.93639018 311.93084106 55.68056832 304.49112855 48.5 298.3125 C47.84 298.3125 47.18 298.3125 46.5 298.3125 Z M70.5 316.3125 C71.49 321.5925 72.48 326.8725 73.5 332.3125 C77.62403473 330.66393175 77.62403473 330.66393175 79.5 327.3125 C79.42161991 323.00159491 79.17299524 321.00320564 76.125 317.875 C73.57949312 316.05675807 73.57949312 316.05675807 70.5 316.3125 Z M-76.5 319.3125 C-78.26078878 321.71357561 -78.53574942 322.83584104 -78.3125 325.8125 C-77.43349553 328.51712914 -76.42831669 330.22991798 -74.5 332.3125 C-73.84 332.3125 -73.18 332.3125 -72.5 332.3125 C-71.41681831 326.9912385 -70.347126 321.67763131 -69.5 316.3125 C-72.48687233 316.3125 -74.08576796 317.62253757 -76.5 319.3125 Z M-1.5 324.3125 C-2.0878125 324.84875 -2.675625 325.385 -3.28125 325.9375 C-23.92578491 343.97180636 -48.13904257 357.43799766 -73.17236328 368.29980469 C-76.95868808 369.94713794 -80.72884009 371.63080453 -84.5 373.3125 C-82.93351939 376.56549806 -81.12461834 379.22964728 -78.875 382.0625 C-77.92753906 383.26132812 -77.92753906 383.26132812 -76.9609375 384.484375 C-76.47882813 385.08765625 -75.99671875 385.6909375 -75.5 386.3125 C-70.68928271 385.72132122 -66.57725935 384.28592321 -62.1875 382.3125 C-61.49817383 382.00562256 -60.80884766 381.69874512 -60.09863281 381.38256836 C-42.69601992 373.50350986 -27.27460458 363.56293158 -12.06640625 352.046875 C-11.44910645 351.58345703 -10.83180664 351.12003906 -10.19580078 350.64257812 C-8.70031432 349.4696138 -7.29249095 348.18670209 -5.90234375 346.890625 C-3.5 345.3125 -3.5 345.3125 -0.51953125 345.30078125 C3.01441686 346.4848596 5.02581554 348.03533241 7.8125 350.5 C11.96362069 354.07757323 16.10899255 357.13419843 20.8203125 359.92578125 C22.88014004 361.62633654 23.23754662 362.68271716 23.5 365.3125 C23.005 366.3025 23.005 366.3025 22.5 367.3125 C19.34822133 367.83611818 17.19557658 367.7183343 14.41113281 366.09375 C12.09345443 364.39405109 9.85262154 362.6285779 7.625 360.8125 C6.84125 360.19246094 6.0575 359.57242188 5.25 358.93359375 C3.32266738 357.40583009 1.40698125 355.86553638 -0.5 354.3125 C-4.25083456 356.76190863 -7.87116297 359.31286664 -11.44287109 362.01538086 C-27.26478155 373.91922027 -44.0911955 382.84850067 -62.03662109 391.15844727 C-64.20964918 392.17647539 -66.35957883 393.22792417 -68.5 394.3125 C-68.10404157 395.79734412 -67.68249294 397.2753831 -67.25 398.75 C-66.90195313 399.98556641 -66.90195313 399.98556641 -66.546875 401.24609375 C-65.71427336 403.45662605 -65.71427336 403.45662605 -63.71142578 404.01855469 C-59.44963498 404.58503693 -55.57628957 402.58486472 -51.625 401.125 C-50.17516724 400.59229492 -50.17516724 400.59229492 -48.69604492 400.04882812 C-33.07811471 394.07990289 -17.09415492 385.88211731 -4.6015625 374.59765625 C-1.54913927 372.73102569 -0.04969589 372.71527628 3.5 373.3125 C6.61393186 375.00217066 9.40437043 377.08462699 12.25 379.1875 C21.32424262 385.63480303 30.60510498 391.22306297 40.5 396.3125 C41.19802734 396.67182617 41.89605469 397.03115234 42.61523438 397.40136719 C55.1908803 403.78330163 68.63237123 409.53897425 82.5 412.3125 C82.5 407.6925 82.5 403.0725 82.5 398.3125 C78.75073702 396.99786226 75.00063713 395.68570652 71.25 394.375 C70.18652344 394.00181641 69.12304688 393.62863281 68.02734375 393.24414062 C66.49013672 392.70756836 66.49013672 392.70756836 64.921875 392.16015625 C63.97924805 391.83023682 63.03662109 391.50031738 62.06542969 391.16040039 C59.88705205 390.44042461 57.73368938 389.82955773 55.5 389.3125 C55.83 387.3325 56.16 385.3525 56.5 383.3125 C60.99342409 381.85961797 64.06581452 383.4376083 68.25 385.1875 C73.73905422 387.47286668 78.55571487 388.79270825 84.5 389.3125 C85.17467562 387.56557205 85.83944156 385.81481475 86.5 384.0625 C87.056875 382.60070312 87.056875 382.60070312 87.625 381.109375 C88.69905238 378.16466862 88.69905238 378.16466862 88.5 374.3125 C87.04207031 373.83683594 87.04207031 373.83683594 85.5546875 373.3515625 C57.2040638 363.85941581 31.81921144 349.36761521 8.109375 331.296875 C4.95382702 328.8971469 1.74050986 326.59558649 -1.5 324.3125 Z M-63.5 330.3125 C-62.98330195 341.66469009 -62.98330195 341.66469009 -59.5 352.3125 C-53.63358573 350.80829121 -49.41245338 347.73633114 -44.5 344.3125 C-44.83 339.6925 -45.16 335.0725 -45.5 330.3125 C-51.44 330.3125 -57.38 330.3125 -63.5 330.3125 Z M46.5 330.3125 C46.17 335.5925 45.84 340.8725 45.5 346.3125 C47.583125 347.488125 49.66625 348.66375 51.8125 349.875 C52.46387939 350.24955322 53.11525879 350.62410645 53.78637695 351.01000977 C55.3179076 351.85390473 56.90959159 352.58562592 58.5 353.3125 C61.59139712 352.67190671 61.59139712 352.67190671 62.44921875 350.44921875 C64.52601722 343.55952223 64.75082184 337.50272612 64.5 330.3125 C58.56 330.3125 52.62 330.3125 46.5 330.3125 Z M-75.5625 343.9375 C-77.95451022 346.86964157 -78.5 348.53267572 -78.5 352.3125 C-76.62882416 355.55107357 -75.44655995 356.99698002 -71.875 358.1875 C-69.48237123 358.50935458 -69.48237123 358.50935458 -67.5 357.3125 C-67.97603774 355.18679688 -68.45592598 353.06195573 -68.9375 350.9375 C-69.20433594 349.75414062 -69.47117187 348.57078125 -69.74609375 347.3515625 C-70.35634695 344.41755419 -70.35634695 344.41755419 -71.5 342.3125 C-73.67579343 342.10620926 -73.67579343 342.10620926 -75.5625 343.9375 Z M72.5 342.3125 C71.18 347.5925 69.86 352.8725 68.5 358.3125 C75.90578008 358.12492355 75.90578008 358.12492355 78.5 355.625 C79.84038506 352.52535954 80.04667869 350.66090698 79.5 347.3125 C77.2495803 344.39459475 77.2495803 344.39459475 74.5 342.3125 C73.84 342.3125 73.18 342.3125 72.5 342.3125 Z M-7.1875 386.8125 C-7.79400391 387.24175781 -8.40050781 387.67101562 -9.02539062 388.11328125 C-10.52138026 389.17343138 -12.011287 390.24215571 -13.5 391.3125 C-12.84300273 396.74883039 -12.14560862 400.09126896 -8.5 404.3125 C-3.02547575 407.57615869 0.49135999 407.66928968 6.5 406.3125 C11.57921099 404.23464096 13.25809385 401.12844654 15.5 396.3125 C16.16693849 393.86388532 16.16693849 393.86388532 15.5 391.3125 C13.39785139 389.42626394 11.53667831 388.0003785 9.1875 386.5 C8.59259766 386.09330078 7.99769531 385.68660156 7.38476562 385.26757812 C1.01221679 381.03107918 -1.42499266 382.65450446 -7.1875 386.8125 Z M0.5 443.3125 C-1.69790854 447.89147612 -2.99432386 451.12209948 -2.5 456.3125 C-1.44689723 457.58253323 -1.44689723 457.58253323 0.9375 457.5 C3.66734675 457.58089983 3.66734675 457.58089983 5.5 455.3125 C5.23012284 450.54467014 4.31668451 447.1854412 1.5 443.3125 C1.17 443.3125 0.84 443.3125 0.5 443.3125 Z " fill="#000000" transform="translate(272.5,23.6875)"/>
<path d="M0 0 C4.82781797 0.56324543 6.56236599 1.7944897 9.75 5.4375 C11.27590424 9.58898249 11.04591569 12.61205097 9.5625 16.75 C7.7273989 19.47101197 6.67601499 20.9744925 3.75 22.4375 C0.125 22.75 0.125 22.75 -3.25 22.4375 C-3.91 21.7775 -4.57 21.1175 -5.25 20.4375 C-4.875 17.8125 -4.875 17.8125 -4.25 15.4375 C-2.27 14.7775 -0.29 14.1175 1.75 13.4375 C1.75 12.1175 1.75 10.7975 1.75 9.4375 C-0.23 8.7775 -2.21 8.1175 -4.25 7.4375 C-4.875 5.0625 -4.875 5.0625 -5.25 2.4375 C-3.25 0.4375 -3.25 0.4375 0 0 Z " fill="#000000" transform="translate(259.25,175.5625)"/>
<path d="M0 0 C4.29677372 0.43696004 5.74847442 1.2680301 8.6875 4.375 C10.52298272 7.46194821 10.68957001 9.25907944 10.625 12.875 C9.51454023 17.02071647 7.91688099 18.63002616 4.6875 21.375 C4.3575 21.705 4.0275 22.035 3.6875 22.375 C0.25 22.5625 0.25 22.5625 -3.3125 22.375 C-3.9725 21.715 -4.6325 21.055 -5.3125 20.375 C-4.9375 17.75 -4.9375 17.75 -4.3125 15.375 C-2.3325 14.715 -0.3525 14.055 1.6875 13.375 C1.6875 12.055 1.6875 10.735 1.6875 9.375 C-0.2925 8.715 -2.2725 8.055 -4.3125 7.375 C-4.9375 5 -4.9375 5 -5.3125 2.375 C-3.3125 0.375 -3.3125 0.375 0 0 Z " fill="#000000" transform="translate(312.3125,156.625)"/>
<path d="M0 0 C4.29677372 0.43696004 5.74847442 1.2680301 8.6875 4.375 C10.52298272 7.46194821 10.68957001 9.25907944 10.625 12.875 C9.51454023 17.02071647 7.91688099 18.63002616 4.6875 21.375 C4.3575 21.705 4.0275 22.035 3.6875 22.375 C0.25 22.5625 0.25 22.5625 -3.3125 22.375 C-3.9725 21.715 -4.6325 21.055 -5.3125 20.375 C-5.25 17.875 -5.25 17.875 -4.3125 15.375 C-2.66045544 14.67288106 -0.99326231 14.00528587 0.6875 13.375 C1.57443303 11.33394361 1.57443303 11.33394361 1.6875 9.375 C-0.2925 8.715 -2.2725 8.055 -4.3125 7.375 C-4.9375 5 -4.9375 5 -5.3125 2.375 C-3.3125 0.375 -3.3125 0.375 0 0 Z " fill="#000000" transform="translate(206.3125,156.625)"/>
<path d="M0 0 C3.39498112 0.09876309 4.18748043 0.43748626 7.125 2.5 C9.62217133 6.05657735 10.1875 8.0963867 10.1875 12.4375 C9.00083694 16.39304353 8.0540413 18.71147891 4.875 21.375 C1.7217403 22.62163756 -0.45258069 22.88548924 -3.8125 22.4375 C-5.8125 19.4375 -5.8125 19.4375 -5.75 17.4375 C-4.44649182 14.65668255 -2.40784792 13.9680898 0.1875 12.4375 C0.1875 11.4475 0.1875 10.4575 0.1875 9.4375 C-0.616875 9.210625 -1.42125 8.98375 -2.25 8.75 C-4.8125 7.4375 -4.8125 7.4375 -5.75 4.9375 C-5.770625 4.1125 -5.79125 3.2875 -5.8125 2.4375 C-3.8125 0.4375 -3.8125 0.4375 0 0 Z " fill="#000000" transform="translate(365.8125,160.5625)"/>
<path d="M0 0 C4.79774427 0.55973683 6.55005483 1.85660897 9.75 5.4375 C11.08794281 9.68743598 10.90564557 11.91868144 9.625 16.1875 C7.59290922 19.70979068 6.49900834 20.95533391 2.75 22.4375 C-0.4375 22.8125 -0.4375 22.8125 -3.25 22.4375 C-5.25 19.4375 -5.25 19.4375 -5.1875 17.4375 C-3.88399182 14.65668255 -1.84534792 13.9680898 0.75 12.4375 C0.75 11.4475 0.75 10.4575 0.75 9.4375 C-0.054375 9.210625 -0.85875 8.98375 -1.6875 8.75 C-4.25 7.4375 -4.25 7.4375 -5.1875 4.9375 C-5.208125 4.1125 -5.22875 3.2875 -5.25 2.4375 C-3.25 0.4375 -3.25 0.4375 0 0 Z " fill="#000000" transform="translate(259.25,141.5625)"/>
<path d="M0 0 C3.140625 1.55859375 3.140625 1.55859375 6.25 3.4375 C7.28640625 4.05496094 8.3228125 4.67242187 9.390625 5.30859375 C12 7 12 7 14 9 C13.44444444 13.55555556 13.44444444 13.55555556 12 15 C4.6573356 15 -1.01867321 10.93006753 -7 7 C-7.66 6.34 -8.32 5.68 -9 5 C-8.75 2.4375 -8.75 2.4375 -8 0 C-5.03465108 -1.48267446 -3.19262692 -0.75996741 0 0 Z " fill="#000000" transform="translate(308,392)"/>
</svg>
