<svg width="64" height="64" viewBox="0 0 64 64" fill="none" xmlns="http://www.w3.org/2000/svg">
<path d="M32.32 24.79C32.32 23.5242 31.9446 22.2868 31.2414 21.2343C30.5381 20.1819 29.5386 19.3616 28.3691 18.8772C27.1997 18.3928 25.9129 18.266 24.6714 18.513C23.4299 18.7599 22.2895 19.3694 21.3945 20.2645C20.4994 21.1596 19.8899 22.2999 19.6429 23.5414C19.396 24.7829 19.5227 26.0697 20.0071 27.2392C20.4915 28.4086 21.3118 29.4082 22.3643 30.1114C23.4168 30.8146 24.6542 31.19 25.92 31.19C27.6165 31.1873 29.2429 30.5122 30.4425 29.3125C31.6422 28.1129 32.3173 26.4866 32.32 24.79ZM21.52 24.79C21.52 23.9197 21.778 23.0691 22.2615 22.3455C22.745 21.6219 23.4322 21.0579 24.2362 20.7249C25.0402 20.3919 25.9248 20.3048 26.7784 20.4745C27.6319 20.6443 28.4159 21.0634 29.0312 21.6787C29.6466 22.2941 30.0656 23.0781 30.2354 23.9316C30.4052 24.7851 30.3181 25.6698 29.985 26.4738C29.652 27.2778 29.0881 27.965 28.3645 28.4485C27.6409 28.9319 26.7902 29.19 25.92 29.19C24.7538 29.1873 23.6362 28.7229 22.8116 27.8983C21.987 27.0738 21.5226 25.9561 21.52 24.79ZM12.32 17.88H10.47C10.2048 17.88 9.9504 17.9853 9.76286 18.1729C9.57533 18.3604 9.46997 18.6148 9.46997 18.88C9.46997 19.1452 9.57533 19.3996 9.76286 19.5871C9.9504 19.7746 10.2048 19.88 10.47 19.88H12.32C12.5852 19.88 12.8395 19.7746 13.0271 19.5871C13.2146 19.3996 13.32 19.1452 13.32 18.88C13.32 18.6148 13.2146 18.3604 13.0271 18.1729C12.8395 17.9853 12.5852 17.88 12.32 17.88ZM41.37 17.88H39.52C39.2548 17.88 39.0004 17.9853 38.8129 18.1729C38.6253 18.3604 38.52 18.6148 38.52 18.88C38.52 19.1452 38.6253 19.3996 38.8129 19.5871C39.0004 19.7746 39.2548 19.88 39.52 19.88H41.37C41.6352 19.88 41.8895 19.7746 42.0771 19.5871C42.2646 19.3996 42.37 19.1452 42.37 18.88C42.37 18.6148 42.2646 18.3604 42.0771 18.1729C41.8895 17.9853 41.6352 17.88 41.37 17.88ZM23.85 10.61H27.5C27.7652 10.61 28.0195 10.5046 28.2071 10.3171C28.3946 10.1296 28.5 9.8752 28.5 9.60999C28.5 9.34477 28.3946 9.09042 28.2071 8.90288C28.0195 8.71534 27.7652 8.60999 27.5 8.60999H23.85C23.5848 8.60999 23.3304 8.71534 23.1429 8.90288C22.9553 9.09042 22.85 9.34477 22.85 9.60999C22.85 9.8752 22.9553 10.1296 23.1429 10.3171C23.3304 10.5046 23.5848 10.61 23.85 10.61Z" fill="black"/>
<path d="M55.78 32.77H46.35V13.32C46.3474 12.4615 46.0052 11.6389 45.3981 11.0319C44.7911 10.4248 43.9685 10.0826 43.11 10.08H32.93L32.11 7.39998C31.9042 6.70407 31.478 6.0938 30.8955 5.66097C30.313 5.22815 29.6057 4.99619 28.88 4.99998H22.47C21.7434 4.99727 21.0354 5.22947 20.4515 5.66197C19.8676 6.09448 19.4391 6.70411 19.23 7.39998L18.42 10.08H8.24C7.38151 10.0826 6.55893 10.4248 5.95189 11.0319C5.34484 11.6389 5.00264 12.4615 5 13.32V36.25C5 36.6755 5.0838 37.0968 5.24663 37.4899C5.40946 37.883 5.64811 38.2402 5.94897 38.541C6.24984 38.8419 6.60701 39.0805 7.00011 39.2434C7.3932 39.4062 7.81452 39.49 8.24 39.49H27.34V55.78C27.3426 56.6332 27.6827 57.4507 28.286 58.054C28.8893 58.6573 29.7068 58.9973 30.56 59H55.78C56.6332 58.9973 57.4507 58.6573 58.054 58.054C58.6573 57.4507 58.9974 56.6332 59 55.78V36C59.0013 35.5763 58.919 35.1565 58.7578 34.7647C58.5965 34.3728 58.3596 34.0167 58.0604 33.7166C57.7613 33.4166 57.4059 33.1785 57.0146 33.016C56.6232 32.8536 56.2037 32.77 55.78 32.77ZM33.29 32.77C34.409 31.7593 35.3036 30.525 35.9159 29.147C36.5281 27.769 36.8445 26.2779 36.8445 24.77C36.8445 23.2621 36.5281 21.7709 35.9159 20.3929C35.3036 19.0149 34.409 17.7807 33.29 16.77H44.35V32.77H33.29ZM7 16.81H18.55C17.431 17.8207 16.5364 19.0549 15.9241 20.4329C15.3119 21.8109 14.9955 23.3021 14.9955 24.81C14.9955 26.3179 15.3119 27.809 15.9241 29.187C16.5364 30.565 17.431 31.7993 18.55 32.81H7V16.81ZM17 24.81C17 23.0497 17.522 21.329 18.4999 19.8654C19.4779 18.4018 20.8679 17.2611 22.4941 16.5875C24.1204 15.9138 25.9099 15.7376 27.6363 16.081C29.3627 16.4244 30.9486 17.272 32.1932 18.5167C33.4379 19.7614 34.2856 21.3472 34.629 23.0737C34.9724 24.8001 34.7961 26.5896 34.1225 28.2159C33.4489 29.8421 32.3082 31.2321 30.8446 32.2101C29.381 33.188 27.6603 33.71 25.9 33.71C24.7299 33.7087 23.5716 33.4769 22.4911 33.0279C21.4105 32.5789 20.429 31.9215 19.6026 31.0932C18.7762 30.2649 18.121 29.282 17.6744 28.2005C17.2278 27.1189 16.9987 25.9601 17 24.79V24.81ZM8.24 12.08H19.16C19.3721 12.0791 19.5785 12.0109 19.7493 11.885C19.92 11.7592 20.0464 11.5823 20.11 11.38L21.11 7.97998C21.1908 7.69209 21.3635 7.43852 21.6018 7.25797C21.8401 7.07741 22.131 6.97979 22.43 6.97998H28.84C29.1484 6.97203 29.4505 7.06841 29.6973 7.25353C29.9442 7.43865 30.1213 7.70166 30.2 7.99998L31.2 11.4C31.266 11.6107 31.3999 11.7936 31.5808 11.9203C31.7617 12.0469 31.9794 12.1101 32.2 12.1H43.11C43.4381 12.1026 43.7519 12.2341 43.9839 12.4661C44.2159 12.698 44.3474 13.0119 44.35 13.34V14.83H30.27C28.9001 14.2231 27.4183 13.9096 25.92 13.9096C24.4217 13.9096 22.9399 14.2231 21.57 14.83H7V13.32C7.00261 12.9919 7.1341 12.678 7.36608 12.4461C7.59806 12.2141 7.91194 12.0826 8.24 12.08ZM8.24 37.49C7.91113 37.49 7.59573 37.3593 7.36319 37.1268C7.13064 36.8943 7 36.5789 7 36.25V34.77H21.57C22.9414 35.3723 24.4222 35.6855 25.92 35.69C26.4265 35.6729 26.9312 35.6194 27.43 35.53C27.3904 35.6813 27.3603 35.8349 27.34 35.99V37.49H8.24ZM57 55.78C57 56.1035 56.8715 56.4139 56.6427 56.6427C56.4139 56.8714 56.1036 57 55.78 57H30.56C30.2364 57 29.9261 56.8714 29.6973 56.6427C29.4685 56.4139 29.34 56.1035 29.34 55.78V36C29.34 35.6764 29.4685 35.3661 29.6973 35.1373C29.9261 34.9085 30.2364 34.78 30.56 34.78H55.78C56.1036 34.78 56.4139 34.9085 56.6427 35.1373C56.8715 35.3661 57 35.6764 57 36V55.78Z" fill="black"/>
<path d="M54.36 36.41H32C31.7348 36.41 31.4804 36.5153 31.2929 36.7029C31.1054 36.8904 31 37.1448 31 37.41V54.41C31 54.6752 31.1054 54.9295 31.2929 55.1171C31.4804 55.3046 31.7348 55.41 32 55.41H54.36C54.6252 55.41 54.8796 55.3046 55.0671 55.1171C55.2546 54.9295 55.36 54.6752 55.36 54.41V37.41C55.36 37.1448 55.2546 36.8904 55.0671 36.7029C54.8796 36.5153 54.6252 36.41 54.36 36.41ZM53.36 38.41V46.41L47.47 43C46.9759 42.7147 46.4155 42.5646 45.845 42.5646C45.2745 42.5646 44.7141 42.7147 44.22 43L40.5 45.18L36.78 43C36.2859 42.7147 35.7255 42.5646 35.155 42.5646C34.5845 42.5646 34.0241 42.7147 33.53 43L32.98 43.32V38.41H53.36ZM33 45.65L34.56 44.76C34.7488 44.6521 34.9625 44.5954 35.18 44.5954C35.3975 44.5954 35.6112 44.6521 35.8 44.76L38.52 46.33L33 49.52V45.65ZM33 53.36V51.83L45.24 44.76C45.4288 44.6521 45.6425 44.5954 45.86 44.5954C46.0775 44.5954 46.2912 44.6521 46.48 44.76L53.38 48.76V53.38L33 53.36Z" fill="black"/>
</svg>
