<svg width="64" height="64" viewBox="0 0 64 64" fill="none" xmlns="http://www.w3.org/2000/svg">
<path d="M10.1111 35.7144C9.14816 36.095 8.37447 36.8405 7.95825 37.7886L7.75366 38.2436L8.20874 38.4497C8.61102 38.6309 9.04734 38.7241 9.48853 38.7231C9.89335 38.722 10.2946 38.6472 10.6726 38.5024C11.6355 38.1218 12.4092 37.3763 12.8254 36.4282L13.03 35.9731L12.575 35.7671C12.1882 35.5958 11.7712 35.503 11.3483 35.4939C10.9254 35.4848 10.5049 35.5598 10.1111 35.7144ZM10.3181 37.5679C9.94788 37.7121 9.5463 37.7565 9.15352 37.6968C9.47551 37.2235 9.93275 36.8583 10.4655 36.6489C10.836 36.5057 11.2373 36.4612 11.6301 36.52C11.3081 36.9933 10.8509 37.3585 10.3181 37.5679ZM37.9426 29.9067L37.0568 30.3716C36.8523 29.981 36.6597 29.5828 36.4792 29.1772L37.3933 28.771C37.5652 29.1577 37.7483 29.5363 37.9426 29.9067ZM35.2625 11.4438C32.606 11.4384 29.9719 11.9299 27.4961 12.893C27.2028 12.4923 26.7902 12.1947 26.3175 12.0429C25.8447 11.891 25.336 11.8926 24.8643 12.0475C24.3925 12.2024 23.9818 12.5027 23.6911 12.9052C23.4004 13.3078 23.2445 13.792 23.2459 14.2886C23.2542 14.6327 23.3037 14.9747 23.3933 15.3071C23.0609 15.2176 22.7189 15.1681 22.3748 15.1597C21.7493 15.1604 21.1497 15.4093 20.7075 15.8516C20.2653 16.2939 20.0165 16.8935 20.0159 17.519C20.0189 17.6348 20.0306 17.7501 20.0508 17.8642C17.8858 20.1068 16.2735 22.8233 15.3419 25.798C14.9154 25.5555 14.4239 25.4525 13.936 25.5033C13.4481 25.5541 12.9883 25.7562 12.6209 26.0812C12.2536 26.4063 11.9971 26.8382 11.8874 27.3163C11.7777 27.7944 11.8202 28.2948 12.009 28.7476C12.1493 29.0618 12.3262 29.3584 12.5359 29.6313C12.1945 29.6761 11.8598 29.7617 11.5388 29.8862C10.9611 30.1263 10.5024 30.5861 10.2637 31.1643C10.025 31.7426 10.0257 32.392 10.2658 32.9697C10.5059 33.5474 10.9657 34.0061 11.544 34.2448C12.1222 34.4835 12.7716 34.4828 13.3493 34.2427C13.6637 34.1027 13.9604 33.9261 14.2331 33.7163C14.245 33.7972 14.2638 33.8685 14.2785 33.9459V56.52H13.1067V57.52H22.8294V56.52H18.5833V44.4053C23.9397 42.444 28.2979 38.214 31.5522 31.821C35.0565 36.9634 40.4299 40.5346 46.5282 41.7739C46.5213 42.4698 46.6638 43.1592 46.946 43.7954C47.2227 44.246 47.5672 44.6511 47.9675 44.9965L47.9622 45.0073C46.1951 48.5712 45.7978 49.389 45.2425 56.5342L42.6614 56.5435L42.6653 57.5435L51.9412 57.5102V57.52H56.2463V32.4282C56.2402 26.8648 54.0275 21.5309 50.0936 17.5969C46.1597 13.6629 40.8259 11.4501 35.2625 11.4438ZM51.5374 42.1811C51.3741 42.261 51.1862 42.274 51.0136 42.2174C50.8409 42.1607 50.6972 42.039 50.613 41.8779C50.5288 41.7169 50.5108 41.5294 50.5628 41.3553C50.6148 41.1812 50.7326 41.0343 50.8913 40.9458C50.986 40.8964 51.0912 40.8706 51.198 40.8706C51.3255 40.8714 51.4505 40.907 51.5592 40.9736C51.668 41.0402 51.7565 41.1353 51.8152 41.2485C51.9018 41.4126 51.9207 41.6042 51.8669 41.7817C51.8415 41.867 51.7993 41.9463 51.7427 42.0149C51.6861 42.0835 51.6162 42.14 51.5374 42.1811ZM51.9412 37.0351C48.3673 31.776 45.9874 26.6511 45.7664 19.8198C47.6946 21.3804 49.2496 23.3521 50.318 25.5908C51.3863 27.8295 51.9409 30.2787 51.9412 32.7593V37.0351ZM52.8801 41.3669C52.8335 40.9573 52.6356 40.5799 52.3252 40.3086L53.55 38.729C53.9483 39.0277 54.2897 39.3955 54.5579 39.8149C54.7496 40.2741 54.8569 40.764 54.8748 41.2612L52.8801 41.3669ZM52.9412 56.5066V42.3646L55.218 42.2446L55.2463 42.2369V56.4983L52.9412 56.5066ZM35.2625 12.4438C40.5607 12.4499 45.6403 14.5573 49.3867 18.3038C53.1331 22.0503 55.2404 27.1299 55.2463 32.4282V39.0639C54.8381 38.5026 53.8712 37.3464 53.1023 37.7495L52.9412 37.9508V32.7593C52.943 30.0219 52.3087 27.3215 51.0883 24.8712C49.8679 22.4208 48.0948 20.2876 45.9089 18.6399C43.7229 16.9921 41.184 15.8748 38.4924 15.3761C35.8008 14.8775 33.0301 15.0111 30.399 15.7665C29.9705 15.3778 29.4133 15.1616 28.8347 15.1597C28.4906 15.1681 28.1486 15.2176 27.8162 15.3071C27.9058 14.9747 27.9553 14.6327 27.9636 14.2886C27.9635 14.1265 27.9466 13.9648 27.9133 13.8062C30.2576 12.9014 32.7495 12.4394 35.2625 12.4438ZM28.8347 16.1597C29.1945 16.1606 29.5392 16.3042 29.7932 16.559C30.0473 16.8137 30.1899 17.1588 30.1899 17.5185C30.1899 17.8783 30.0473 18.2234 29.7932 18.4781C29.5392 18.7329 29.1945 18.8765 28.8347 18.8774C28.2763 18.8411 27.7288 18.7055 27.218 18.477L26.8341 18.3136C26.989 18.0775 27.0715 17.8013 27.0715 17.5189C27.0715 17.2365 26.9889 16.9603 26.834 16.7242L27.218 16.561C27.7287 16.3321 28.2762 16.1962 28.8347 16.1597ZM24.6472 19.1333L24.811 18.7489C25.0468 18.9035 25.3227 18.9858 25.6047 18.9858C25.8868 18.9858 26.1626 18.9035 26.3985 18.7489L26.5623 19.1333C26.7916 19.6437 26.9275 20.1911 26.9636 20.7495C26.9626 21.1093 26.819 21.454 26.5643 21.708C26.3096 21.962 25.9645 22.1047 25.6047 22.1047C25.245 22.1047 24.8999 21.962 24.6452 21.708C24.3904 21.454 24.2468 21.1093 24.2459 20.7495C24.2819 20.1911 24.4179 19.6437 24.6472 19.1333ZM25.1379 17.519C25.1379 17.4267 25.1653 17.3365 25.2166 17.2597C25.2679 17.1829 25.3408 17.1231 25.4261 17.0878C25.5114 17.0524 25.6053 17.0432 25.6958 17.0612C25.7864 17.0792 25.8695 17.1237 25.9348 17.189C26.0001 17.2542 26.0446 17.3374 26.0626 17.428C26.0806 17.5185 26.0713 17.6124 26.036 17.6977C26.0007 17.783 25.9408 17.8559 25.8641 17.9072C25.7873 17.9585 25.6971 17.9858 25.6047 17.9858C25.481 17.9858 25.3623 17.9365 25.2747 17.849C25.1872 17.7615 25.138 17.6428 25.1379 17.519ZM25.6047 12.9302C25.965 12.9305 26.3104 13.0737 26.5651 13.3283C26.8199 13.583 26.9632 13.9283 26.9636 14.2886C26.9274 14.8469 26.7915 15.3943 26.5623 15.9048L26.3985 16.2892C26.1626 16.1346 25.8868 16.0522 25.6047 16.0522C25.3227 16.0522 25.0468 16.1346 24.811 16.2892L24.6472 15.9048C24.418 15.3943 24.282 14.847 24.2459 14.2886C24.2463 13.9283 24.3896 13.583 24.6444 13.3283C24.8991 13.0737 25.2445 12.9305 25.6047 12.9302ZM22.3747 16.1597C22.9332 16.1962 23.4807 16.3321 23.9914 16.561L24.3754 16.7242C24.2205 16.9603 24.1379 17.2365 24.1379 17.5189C24.1379 17.8013 24.2204 18.0776 24.3753 18.3137L23.9914 18.477C23.4806 18.7056 22.9331 18.8412 22.3747 18.8774C22.196 18.8779 22.0188 18.8431 21.8536 18.7751C21.6883 18.707 21.538 18.607 21.4114 18.4807C21.2849 18.3545 21.1844 18.2045 21.1159 18.0394C21.0474 17.8743 21.0121 17.6973 21.0121 17.5185C21.0121 17.3398 21.0474 17.1628 21.1159 16.9977C21.1844 16.8326 21.2849 16.6826 21.4114 16.5564C21.538 16.4301 21.6883 16.3301 21.8536 16.262C22.0188 16.194 22.196 16.1592 22.3747 16.1597ZM22.3747 19.8774C22.7187 19.869 23.0604 19.8198 23.3928 19.731C23.3828 19.7706 23.3788 19.8064 23.3697 19.8456C23.2364 19.8698 23.1131 19.9325 23.0149 20.0259L23.0071 20.0181L22.8904 20.1352C22.8186 20.2017 22.7424 20.2759 22.6604 20.3569L22.6643 20.3608C22.5827 20.4428 22.5163 20.5093 22.5027 20.5239C20.7126 22.4583 19.343 24.7427 18.4801 27.233C18.1463 27.2207 17.8137 27.2799 17.5046 27.4067C17.19 27.5464 16.8932 27.7235 16.6209 27.934C16.5758 27.5928 16.4902 27.258 16.366 26.937C16.3086 26.8015 16.2386 26.6716 16.157 26.5492C16.9752 23.6956 18.4509 21.0734 20.4656 18.893C20.6828 19.1969 20.9692 19.4447 21.3012 19.6159C21.6332 19.787 22.0012 19.8767 22.3747 19.8774ZM18.5833 37.9224V35.1738C18.8195 34.85 18.9678 34.4705 19.0137 34.0723C19.0596 33.6741 19.0014 33.2708 18.845 32.9018C18.7048 32.5878 18.528 32.2914 18.3181 32.019C18.6595 31.9734 18.9943 31.8879 19.3157 31.7641C19.8928 31.5229 20.3507 31.0627 20.5891 30.4845C20.8276 29.9062 20.827 29.257 20.5877 28.6791C20.3673 28.155 19.9634 27.7292 19.4515 27.4816C20.0557 25.7548 20.9216 24.1311 22.0189 22.6673C22.2839 27.9703 21.0959 33.2449 18.5833 37.9224ZM15.1619 32.6831L15.1658 32.2529C15.4406 32.3243 15.7317 32.2982 15.9895 32.1792C16.2464 32.0643 16.4637 31.8762 16.6141 31.6384L16.9304 31.9477C17.338 32.3309 17.6735 32.784 17.9211 33.2856C18.0595 33.6184 18.0599 33.9924 17.9224 34.3255C17.7849 34.6586 17.5208 34.9235 17.188 35.0618C16.8553 35.2001 16.4812 35.2005 16.1481 35.063C15.815 34.9256 15.5502 34.6614 15.4119 34.3286C15.2307 33.7995 15.146 33.2422 15.1619 32.6831ZM19.6643 29.063C19.8022 29.3959 19.8024 29.7699 19.6651 30.1031C19.5277 30.4362 19.2639 30.7013 18.9314 30.8403C18.3993 31.0113 17.8432 31.0957 17.2844 31.0903L16.842 31.0865C16.9114 30.8125 16.8903 30.5235 16.782 30.2625C16.6737 30.0015 16.4839 29.7825 16.241 29.6381L16.55 29.3218C16.9332 28.9139 17.3865 28.5782 17.8884 28.3306C18.2211 28.1926 18.5949 28.1922 18.9278 28.3295C19.2608 28.4669 19.5256 28.7306 19.6643 29.063ZM15.8577 30.645C15.8929 30.7302 15.9022 30.825 15.8842 30.9154C15.8663 31.0059 15.822 31.089 15.7568 31.1543C15.6917 31.2196 15.6087 31.2641 15.5183 31.2823C15.4278 31.3004 15.3341 31.2914 15.2488 31.2563C15.1634 31.2212 15.0904 31.1615 15.039 31.0848C14.9876 31.0081 14.9601 30.9179 14.96 30.8255C14.9599 30.7332 14.9872 30.6429 15.0384 30.5661C15.0896 30.4893 15.1625 30.4294 15.2478 30.394C15.3047 30.3701 15.3658 30.3578 15.4275 30.3579C15.4884 30.358 15.5488 30.3699 15.6052 30.3931C15.6619 30.4163 15.7133 30.4505 15.7567 30.4937C15.8 30.537 15.8343 30.5884 15.8577 30.645ZM12.9314 27.3227C13.0341 27.0745 13.2082 26.8622 13.4315 26.7128C13.6548 26.5634 13.9174 26.4836 14.1861 26.4834C14.4548 26.4832 14.7175 26.5626 14.9411 26.7116C15.1646 26.8607 15.339 27.0726 15.4421 27.3207C15.6232 27.8506 15.7078 28.4085 15.6921 28.9682L15.6887 29.3829C15.4112 29.3312 15.1247 29.3615 14.8642 29.4701C14.6036 29.5786 14.3804 29.7608 14.2217 29.9942L13.9241 29.7026C13.5166 29.3189 13.1809 28.8655 12.9328 28.3637C12.8637 28.1989 12.828 28.0221 12.8278 27.8434C12.8275 27.6647 12.8627 27.4877 12.9314 27.3227ZM12.9656 33.3188C12.7174 33.4222 12.4441 33.4495 12.1804 33.3974C11.9167 33.3454 11.6743 33.2162 11.484 33.0263C11.2937 32.8365 11.164 32.5944 11.1114 32.3308C11.0587 32.0671 11.0855 31.7938 11.1882 31.5454C11.2558 31.3803 11.3555 31.2302 11.4816 31.104C11.6077 30.9777 11.7576 30.8778 11.9226 30.8101C12.4537 30.6357 13.0102 30.5512 13.5691 30.5601L13.9867 30.5641C13.9338 30.8413 13.9635 31.1279 14.0721 31.3884C14.1808 31.6489 14.3636 31.8717 14.5978 32.0292L14.3044 32.3286C13.9207 32.7358 13.4673 33.0711 12.9656 33.3188ZM15.2786 56.52V35.7065C15.6035 35.9484 15.9859 36.1014 16.388 36.1504C16.7901 36.1994 17.1981 36.1427 17.5716 35.9858L17.5833 35.9795V56.52H15.2786ZM18.5833 43.3365V42.1981C20.3852 41.1647 21.9338 39.7423 23.1165 38.0347L22.3225 37.4272C21.3078 38.8541 20.0405 40.0831 18.5833 41.0536V39.9938C21.9778 34.4513 23.5182 27.9714 22.981 21.4943C23.0651 21.3996 23.1457 21.3011 23.2317 21.2085L23.2867 21.1534C23.3632 21.6059 23.5707 22.026 23.8836 22.3617C24.1966 22.6974 24.6011 22.9339 25.0471 23.0419C25.4931 23.15 25.961 23.1249 26.3929 22.9696C26.8247 22.8144 27.2015 22.5359 27.4767 22.1686C27.4944 22.2439 27.511 22.3209 27.5292 22.3957C27.4936 24.8819 27.0063 27.3409 26.0911 29.6528L27.0032 30.063C27.6792 28.4807 28.1163 26.8068 28.3002 25.0961C28.9561 27.1045 29.837 29.0323 30.9264 30.8426C27.8308 37.1572 23.6813 41.3548 18.5833 43.3365ZM28.0023 19.7682C28.2753 19.8328 28.5543 19.8694 28.8347 19.8774C29.2211 19.8787 29.6018 19.7847 29.9432 19.6038C30.2847 19.4229 30.5762 19.1606 30.7922 18.8402C31.0081 18.5198 31.1417 18.1511 31.1813 17.7668C31.2208 17.3824 31.165 16.9942 31.0188 16.6366C33.3459 16.0179 35.78 15.9141 38.1513 16.3324C40.5227 16.7507 42.7743 17.6811 44.7492 19.0587C44.8157 27.056 47.6683 32.7551 51.9412 38.7911V39.2003L51.3954 39.8822C51.0865 39.8469 50.774 39.8992 50.4935 40.033C48.9205 38.7772 46.4885 36.6432 44.5237 31.2192L43.5833 31.5591C44.5012 34.3678 46.0071 36.9487 48.0008 39.1297C44.0051 37.4866 40.6583 34.5789 38.473 30.852L37.6155 31.3657C40.321 35.8816 43.9018 38.728 49.4256 40.7841L47.2358 40.8995C41.1812 39.7012 30.7127 35.3594 28.0023 19.7682ZM47.5154 41.8862L49.5537 41.7782C49.5976 42.1751 49.7906 42.5405 50.0937 42.8005L48.8396 44.4175C48.4414 44.1192 48.1002 43.7517 47.8323 43.3325C47.6408 42.8733 47.5335 42.3833 47.5154 41.8862ZM46.2457 56.5306C46.7802 49.6668 47.1284 48.9408 48.8515 45.4641C48.8817 45.4672 48.9171 45.479 48.9451 45.479C49.0647 45.4799 49.1828 45.4514 49.2888 45.396L50.2578 44.1853C49.7553 46.3642 49.5336 48.5984 49.5979 50.8335L50.5979 50.8101C50.5589 49.1133 50.7053 44.4308 51.835 43.1299C51.8704 43.116 51.9064 43.1066 51.9412 43.0901V56.5102L46.2457 56.5306ZM14.4504 18.9175C13.594 18.459 12.5914 18.3565 11.6599 18.6323L11.1804 18.77L11.3171 19.2495C11.4288 19.6314 11.6151 19.9873 11.8654 20.2966C12.1157 20.6059 12.4249 20.8624 12.7751 21.0513C13.3044 21.34 13.8983 21.4895 14.5012 21.4858C14.8613 21.4856 15.2196 21.4349 15.5657 21.3354L16.0447 21.1968L15.9079 20.7173C15.7962 20.3358 15.6098 19.9802 15.3596 19.6713C15.1094 19.3623 14.8004 19.1061 14.4504 18.9175ZM13.2595 20.1763C12.9579 20.0124 12.7015 19.7765 12.5129 19.4897C13.0163 19.4452 13.5216 19.5502 13.9656 19.7915C14.2672 19.9558 14.5236 20.1919 14.7122 20.479C14.2089 20.5196 13.7046 20.4145 13.2595 20.1763ZM14.8552 18.6753L14.9529 19.1645L15.4426 19.0678C15.8323 18.9882 16.2023 18.8319 16.5311 18.6081C16.86 18.3843 17.1411 18.0974 17.3582 17.7641C17.8863 16.9489 18.0711 15.9581 17.8723 15.0073L17.7747 14.518L17.2849 14.6147C16.8953 14.6944 16.5255 14.8507 16.1968 15.0745C15.8682 15.2983 15.5872 15.5852 15.3704 15.9184C14.8419 16.7335 14.6568 17.7243 14.8552 18.6753ZM16.2019 16.4741C16.3903 16.187 16.6465 15.9509 16.948 15.7866C16.9488 16.2915 16.8024 16.7856 16.5266 17.2085C16.3381 17.4956 16.0816 17.7317 15.78 17.896C15.7794 17.3911 15.926 16.8969 16.2019 16.4741ZM11.7151 16.1723C12.2445 16.4611 12.8386 16.6106 13.4417 16.6069C13.8016 16.6066 14.1597 16.556 14.5057 16.4565L14.9847 16.3178L14.8479 15.8384C14.7361 15.4569 14.5497 15.1014 14.2995 14.7924C14.0493 14.4835 13.7403 14.2272 13.3904 14.0385C12.534 13.58 11.5313 13.4775 10.5999 13.7534L10.1204 13.8911L10.2571 14.3706C10.3687 14.7525 10.5551 15.1084 10.8054 15.4177C11.0556 15.727 11.3649 15.9835 11.7151 16.1723ZM12.9055 14.9135C13.2071 15.0774 13.4635 15.3133 13.6521 15.6001C13.149 15.6408 12.6449 15.5357 12.2 15.2974C11.8985 15.1332 11.6419 14.8974 11.4529 14.6108C11.9564 14.5658 12.4619 14.6712 12.9055 14.9135ZM28.1672 11.1548L28.6565 11.0581C29.051 10.9776 29.4256 10.8196 29.7584 10.5931C30.0913 10.3666 30.3758 10.0762 30.5955 9.73874C31.1308 8.91292 31.3184 7.90915 31.1175 6.94574L31.0198 6.45648L30.5306 6.55316C30.1361 6.63361 29.7615 6.79168 29.4286 7.01817C29.0958 7.24467 28.8112 7.53507 28.5916 7.8725C28.0563 8.69832 27.8687 9.70209 28.0696 10.6655L28.1672 11.1548ZM29.4226 8.42819C29.617 8.13248 29.882 7.88984 30.1936 7.72219C30.1968 8.24071 30.0476 8.74874 29.7644 9.18313C29.57 9.47886 29.3051 9.72151 28.9934 9.88918C28.9902 9.37065 29.1394 8.86259 29.4226 8.42819ZM36.5335 56.4966L36.5393 57.4966L32.613 57.52L32.6071 56.52L36.5335 56.4966ZM40.1765 56.5434H41.51V57.5434H40.1765L40.1765 56.5434ZM37.6902 56.5434H39.0237V57.5434H37.6902V56.5434ZM23.634 35.5952L24.4631 36.1538C24.2361 36.4897 24.0075 36.8185 23.7776 37.1401L22.9651 36.5581C23.1897 36.2446 23.4127 35.9237 23.634 35.5952Z" fill="black"/>
</svg>
